<svg width="148" height="61" viewBox="0 0 148 61" fill="none" xmlns="http://www.w3.org/2000/svg">
<path fill-rule="evenodd" clip-rule="evenodd" d="M52.9885 2.61603C52.6125 3.26403 52.4245 3.99603 52.4245 4.81203C52.4245 5.62803 52.6125 6.36003 52.9885 7.00803C53.3725 7.65603 53.8885 8.16403 54.5365 8.53203C55.1845 8.89203 55.9005 9.07203 56.6845 9.07203C57.5725 9.07203 58.3605 8.85603 59.0485 8.42403C59.7445 7.99203 60.2485 7.37603 60.5605 6.57603H58.9165C58.7005 7.01603 58.4005 7.34403 58.0165 7.56003C57.6325 7.77603 57.1885 7.88403 56.6845 7.88403C56.1325 7.88403 55.6405 7.76003 55.2085 7.51203C54.7765 7.25603 54.4365 6.89603 54.1885 6.43203C53.9485 5.96803 53.8285 5.42803 53.8285 4.81203C53.8285 4.19603 53.9485 3.65603 54.1885 3.19203C54.4365 2.72803 54.7765 2.37203 55.2085 2.12403C55.6405 1.87603 56.1325 1.75203 56.6845 1.75203C57.1885 1.75203 57.6325 1.86003 58.0165 2.07603C58.4005 2.29203 58.7005 2.62003 58.9165 3.06003H60.5605C60.2485 2.26003 59.7445 1.64403 59.0485 1.21203C58.3605 0.772032 57.5725 0.552032 56.6845 0.552032C55.9085 0.552032 55.1925 0.736032 54.5365 1.10403C53.8885 1.46403 53.3725 1.96803 52.9885 2.61603ZM68.8217 9.00003V0.660033H67.4537V4.23603H63.5297V0.660033H62.1617V9.00003H63.5297V5.35203H67.4537V9.00003H68.8217ZM72.1587 7.29603H75.6507L76.2507 9.00003H77.6907L74.7027 0.648033H73.1187L70.1307 9.00003H71.5587L72.1587 7.29603ZM73.9107 2.30403L75.2667 6.18003H72.5427L73.9107 2.30403ZM84.4738 9.00003H85.8418V0.648033H84.4738V6.86403L80.3578 0.648033H78.9898V9.00003H80.3578V2.77203L84.4738 9.00003ZM92.7743 2.12403C93.1583 2.33203 93.4583 2.64403 93.6743 3.06003H95.3183C95.0063 2.26003 94.5023 1.64403 93.8063 1.21203C93.1183 0.772032 92.3303 0.552032 91.4423 0.552032C90.6663 0.552032 89.9503 0.736032 89.2943 1.10403C88.6463 1.46403 88.1303 1.96803 87.7463 2.61603C87.3703 3.26403 87.1823 3.99603 87.1823 4.81203C87.1823 5.62803 87.3703 6.36003 87.7463 7.00803C88.1303 7.65603 88.6463 8.16403 89.2943 8.53203C89.9423 8.89203 90.6583 9.07203 91.4423 9.07203C92.1703 9.07203 92.8303 8.91203 93.4223 8.59203C94.0223 8.26403 94.5063 7.82803 94.8743 7.28403C95.2503 6.74003 95.4823 6.14403 95.5703 5.49603V4.42803H90.9743V5.52003H94.1063C94.0023 6.23203 93.7183 6.79603 93.2543 7.21203C92.7903 7.62803 92.1863 7.83603 91.4423 7.83603C90.8903 7.83603 90.3983 7.71203 89.9663 7.46403C89.5343 7.21603 89.1943 6.86403 88.9463 6.40803C88.7063 5.94403 88.5863 5.41203 88.5863 4.81203C88.5863 4.21203 88.7063 3.68403 88.9463 3.22803C89.1943 2.77203 89.5343 2.42003 89.9663 2.17203C90.3983 1.92403 90.8903 1.80003 91.4423 1.80003C91.9463 1.80003 92.3903 1.90803 92.7743 2.12403ZM70.3622 19.508C69.9222 19.932 69.3182 20.476 68.5502 21.14L67.6862 21.884V22.88H73.5182V21.74H69.7142L70.2542 21.26C70.8782 20.708 71.3902 20.224 71.7902 19.808C72.1982 19.384 72.5462 18.908 72.8342 18.38C73.1302 17.844 73.2782 17.288 73.2782 16.712C73.2782 15.912 73.0302 15.272 72.5342 14.792C72.0462 14.312 71.3662 14.072 70.4942 14.072C69.6862 14.072 69.0182 14.316 68.4902 14.804C67.9702 15.284 67.6982 15.98 67.6742 16.892H68.9942C69.0102 16.388 69.1462 15.988 69.4022 15.692C69.6662 15.388 70.0342 15.236 70.5062 15.236C70.9942 15.236 71.3502 15.372 71.5742 15.644C71.8062 15.916 71.9222 16.292 71.9222 16.772C71.9222 17.236 71.7742 17.7 71.4782 18.164C71.1822 18.628 70.8102 19.076 70.3622 19.508ZM77.288 19.508C76.848 19.932 76.244 20.476 75.476 21.14L74.612 21.884V22.88H80.444V21.74H76.64L77.18 21.26C77.804 20.708 78.316 20.224 78.716 19.808C79.124 19.384 79.472 18.908 79.76 18.38C80.056 17.844 80.204 17.288 80.204 16.712C80.204 15.912 79.956 15.272 79.46 14.792C78.972 14.312 78.292 14.072 77.42 14.072C76.612 14.072 75.944 14.316 75.416 14.804C74.896 15.284 74.624 15.98 74.6 16.892H75.92C75.936 16.388 76.072 15.988 76.328 15.692C76.592 15.388 76.96 15.236 77.432 15.236C77.92 15.236 78.276 15.372 78.5 15.644C78.732 15.916 78.848 16.292 78.848 16.772C78.848 17.236 78.7 17.7 78.404 18.164C78.108 18.628 77.736 19.076 77.288 19.508ZM134.796 5.79939C138.827 11.6717 132.382 14.8026 127.778 13.5711C119.207 11.278 117.318 12.2134 115.907 12.9125C115.717 13.0062 115.537 13.0957 115.35 13.1726C112.043 15.7284 112.288 18.8932 112.824 20.1561C113.238 21.1339 115.61 22.0976 115.61 22.0976C119.095 21.8644 122.585 23.6276 123.292 24.4477C130.918 24.0145 135.417 29.768 135.815 33.5133C133.803 27.5295 127.622 24.9028 123.202 25.869C119.85 23.4712 117.069 23.1934 116.049 23.6349C111.164 22.4746 110.485 18.8671 110.82 17.1671C112.561 12.0509 116.36 10.9186 118.042 10.9921C120.83 10.8055 126.271 12.0213 128.644 12.6525C133.563 13.9614 137.767 10.4416 134.796 5.79939ZM13.0835 5.98697C9.05327 11.8592 15.4983 14.9902 20.1019 13.7587C28.6733 11.4656 30.5617 12.4009 31.9733 13.1001C32.1625 13.1938 32.3431 13.2833 32.5301 13.3602C35.8366 15.916 35.592 19.0808 35.0563 20.3437C34.6417 21.3214 32.2696 22.2852 32.2696 22.2852C28.785 22.0519 25.2947 23.8152 24.5883 24.6353C16.9619 24.2021 12.4626 29.9556 12.0645 33.7009C14.0767 27.7171 20.2577 25.0904 24.678 26.0566C28.0294 23.6587 30.8113 23.381 31.8309 23.8224C36.716 22.6622 37.3953 19.0547 37.0599 17.3547C35.3192 12.2384 31.5197 11.1062 29.8375 11.1796C27.0498 10.993 21.6084 12.2088 19.2362 12.8401C14.3173 14.149 10.113 10.6291 13.0835 5.98697ZM40.8111 27.5039L38.3834 28.062C40.5217 24.7902 43.2194 14.2721 35.8624 8.84566C33.8912 7.51938 31.0354 6.01833 17.6205 10.7035L17.5836 10.7121C16.9896 10.8512 14.6883 11.39 14.6452 6.93896L14.7422 7.36152L14.9533 7.31299C15.0065 8.19046 15.2028 9.36867 15.819 10.1167C15.8834 10.1514 15.9411 10.1844 15.995 10.2152C16.0976 10.2739 16.1862 10.3245 16.2798 10.3629C16.8681 10.6042 17.655 10.3613 23.3886 8.59176L24.7096 8.18422C32.2855 5.84869 34.9038 7.06418 35.7826 7.52945C38.8184 9.13675 44.9464 15.1408 40.8111 27.5039ZM41.9906 27.0908C46.9788 24.7932 49.075 21.4998 48.9404 20.9866C48.8059 20.4734 47.9148 21.2559 47.9148 21.2559C45.3175 23.4742 43.6817 24.3427 42.8612 24.5582L41.9906 27.0908ZM49.6016 23.1542C49.9986 23.7204 46.9429 28.6635 33.4132 34.6685L35.1153 33.4975C34.8701 32.4556 35.335 30.6965 36.829 29.5745C37.4536 29.4273 43.234 27.8445 48.0892 23.7307C48.0892 23.7307 49.2708 22.6824 49.6016 23.1542ZM25.9275 32.4981C25.9521 32.4968 25.9764 32.4953 26.0004 32.4938C25.972 32.5018 25.9474 32.5034 25.9275 32.4981ZM26.0004 32.4938C26.3276 32.4009 27.161 31.4509 27.2824 30.4461C27.6294 30.9997 28.2538 32.3462 26.0004 32.4938ZM15.0379 34.3495C8.9081 40.7619 16.8028 50.6132 25.2385 43.6655C16.0068 47.373 12.3855 39.2275 15.0379 34.3495ZM25.2385 43.6655L26.2029 42.7245C25.1302 41.6848 24.7335 39.785 25.1003 38.7883C24.194 39.9364 25.0644 43.044 25.2385 43.6655ZM45.8986 60.0738C59.4207 34.109 89.0382 34.9204 102.258 60.0738C86.3136 37.8955 61.1362 37.8279 45.8986 60.0738ZM24.6684 50.3286C27.9111 49.1588 29.2957 44.8307 29.0689 43.9955C33.904 43.3566 34.3811 40.0053 34.6913 37.8263C34.7322 37.5389 34.7702 37.2719 34.8149 37.0343C37.9025 35.4634 39.3087 33.7019 39.9848 32.8549C40.0598 32.761 40.1259 32.6783 40.1842 32.6083C38.0976 35.11 35.2592 36.187 34.0547 36.0375C33.7417 41.731 30.4228 42.9396 28.5108 42.9523C28.0373 47.8522 25.524 49.8839 24.6684 50.3286ZM10.9045 57.4009C2.0639 56.0184 -5.80055 44.682 8.41811 35.8341C-1.69163 43.598 0.591233 52.5492 9.52317 54.9125C17.0262 56.8977 29.2482 53.8607 42.4913 45.235C48.5312 41.6915 59.458 35.3489 71.0772 31.8213C61.6135 29.2527 54.33 29.7811 50.6872 31.0382C57.8021 28.1681 66.1476 28.7637 74.3023 30.9225C82.2253 28.919 90.2883 28.4407 97.1926 31.2258C93.6342 29.9978 86.6017 29.4652 77.4565 31.8354C88.8305 35.3985 99.4621 41.5705 105.389 45.0475C118.632 53.6731 130.854 56.7101 138.357 54.7249C147.289 52.3616 149.571 43.4104 139.462 35.6465C153.68 44.4945 145.816 55.8309 136.975 57.2134C125.328 59.6391 109.103 50.4883 96.9369 43.6266C92.462 41.1028 88.5362 38.8886 85.5893 37.6742C81.5882 35.5371 77.7793 33.938 74.2293 32.7686C70.5156 33.9527 66.5099 35.608 62.2906 37.8618C59.3437 39.0762 55.4179 41.2903 50.9429 43.8142C38.7769 50.6758 22.5519 59.8267 10.9045 57.4009ZM122.641 43.4779C131.077 50.4256 138.972 40.5743 132.842 34.1619C135.494 39.04 131.873 47.1854 122.641 43.4779ZM122.641 43.4779L121.677 42.537C122.75 41.4972 123.146 39.5975 122.78 38.6007C123.686 39.7489 122.815 42.8564 122.641 43.4779ZM121.952 32.3105C121.928 32.3092 121.903 32.3078 121.879 32.3062C121.908 32.3143 121.932 32.3159 121.952 32.3105ZM121.879 32.3062C121.552 32.2133 120.719 31.2633 120.597 30.2585C120.251 30.8121 119.626 32.1586 121.879 32.3062ZM123.211 50.1411C119.969 48.9712 118.584 44.6432 118.811 43.8079C113.976 43.169 113.499 39.8178 113.189 37.6387C113.148 37.3513 113.11 37.0844 113.065 36.8467C109.977 35.2758 108.571 33.5144 107.895 32.6674L107.895 32.6671L107.894 32.6664L107.894 32.6657C107.819 32.5724 107.754 32.4903 107.696 32.4207C109.782 34.9224 112.621 35.9995 113.825 35.8499C114.138 41.5434 117.457 42.752 119.369 42.7648C119.843 47.6646 122.356 49.6963 123.211 50.1411ZM98.2783 22.9666C97.8813 23.5328 100.937 28.476 114.467 34.481L112.765 33.3099C113.01 32.2681 112.545 30.5089 111.051 29.3869C110.426 29.2397 104.646 27.6569 99.7907 23.5431C99.7907 23.5431 98.6091 22.4948 98.2783 22.9666ZM105.889 26.9033C100.901 24.6056 98.8049 21.3122 98.9394 20.799C99.074 20.2858 99.965 21.0684 99.965 21.0684C102.562 23.2866 104.198 24.1551 105.019 24.3706L105.889 26.9033ZM107.069 27.3164L109.496 27.8744C107.358 24.6026 104.66 14.0845 112.017 8.65808C113.989 7.33181 116.844 5.83076 130.259 10.516L130.296 10.5246C130.89 10.6636 133.192 11.2024 133.235 6.75139L133.138 7.17394L132.927 7.12542C132.873 8.00288 132.677 9.1811 132.061 9.92916C131.996 9.96379 131.939 9.99681 131.885 10.0276C131.782 10.0863 131.694 10.1369 131.6 10.1753C131.012 10.4166 130.225 10.1737 124.491 8.40426L124.491 8.4042L124.491 8.40414L123.17 7.99665C115.594 5.66112 112.976 6.87661 112.097 7.34188C109.061 8.94917 102.933 14.9532 107.069 27.3164Z" fill="#BC7C00"/>
</svg>
