<svg width="386" height="332" viewBox="0 0 386 332" fill="none" xmlns="http://www.w3.org/2000/svg">
<g opacity="0.2">
<path d="M7.8197 244.139C9.32763 246.509 10.036 247.622 23.0292 246.063C20.7082 246.228 15.0655 246.938 12.8025 239.754C12.3674 237.433 13.5423 227.875 21.7236 215.169C15.9938 221.188 5.187 235.402 7.79804 244.105L7.8197 244.139Z" fill="#76716C"/>
<path fill-rule="evenodd" clip-rule="evenodd" d="M7.99797 244.014C7.37157 241.898 7.55013 239.434 8.27636 236.817C9.00537 234.19 10.2815 231.426 11.8219 228.739C14.3666 224.299 17.622 220.085 20.2873 217.062C16.9507 222.598 14.9561 227.463 13.8233 231.294C13.1893 233.438 12.8249 235.259 12.6465 236.693C12.4688 238.122 12.4738 239.181 12.5887 239.794L12.5912 239.807L12.5951 239.819C13.7456 243.472 15.7692 245.145 17.8217 245.87C18.3302 246.049 18.8389 246.17 19.3339 246.248C15.1526 246.65 12.7036 246.655 11.1583 246.361C10.1919 246.176 9.59344 245.877 9.14696 245.493C8.69415 245.105 8.38351 244.62 8.00335 244.022L7.99797 244.014ZM11.4443 228.523C14.5465 223.11 18.6922 218.038 21.5661 215.019L21.9066 215.287C17.8268 221.623 15.4966 227.17 14.2406 231.417C13.6126 233.541 13.2535 235.339 13.0784 236.747C12.9039 238.149 12.9137 239.151 13.0141 239.701C14.1271 243.224 16.0541 244.785 17.9666 245.459C19.7586 246.092 21.5591 245.956 22.7454 245.866C22.8387 245.859 22.9283 245.852 23.0138 245.846L23.0551 246.279C16.5635 247.058 13.1048 247.175 11.0767 246.788C10.0534 246.593 9.37997 246.267 8.86351 245.824C8.35745 245.389 8.0155 244.852 7.64518 244.27L7.59835 244.196L7.5897 244.167C6.92073 241.938 7.11556 239.372 7.85703 236.701C8.59899 234.027 9.89314 231.229 11.4443 228.523Z" fill="#76716C"/>
<path d="M92.0043 211.471C39.7834 214.951 29.3392 231.921 24.5522 235.62C26.2929 227.57 42.1768 209.077 92.0043 211.471Z" fill="#76716C"/>
<path fill-rule="evenodd" clip-rule="evenodd" d="M40.1466 219.435C50.6064 214.083 67.0745 210.055 92.0148 211.253L92.0188 211.688C65.9304 213.427 50.2956 218.534 40.5921 223.656C33.3249 227.492 29.4008 231.319 26.8605 233.796C26.0028 234.632 25.3029 235.315 24.6853 235.792L24.2136 236.156L24.3396 235.574C25.2282 231.465 29.6933 224.784 40.1466 219.435ZM24.9281 235.025C25.3882 234.62 25.907 234.114 26.5093 233.527C29.0427 231.056 33.0539 227.143 40.389 223.271C49.668 218.373 64.2928 213.511 88.1241 211.542C65.3937 210.921 50.1716 214.795 40.3449 219.823C30.5084 224.856 26.0894 231.038 24.9281 235.025Z" fill="#76716C"/>
<path d="M49.3573 222.784C47.1814 237.796 59.2213 235.62 64.3709 233.227C55.8849 234.5 50.0101 228.683 49.3573 222.784Z" fill="#76716C"/>
<path fill-rule="evenodd" clip-rule="evenodd" d="M49.8652 231.18C48.9362 229.257 48.5946 226.529 49.142 222.753L49.5736 222.76C50.2131 228.539 55.9771 234.266 64.3386 233.012L64.4626 233.424C63.1592 234.03 61.4225 234.621 59.5827 234.93C57.7445 235.239 55.7879 235.27 54.0535 234.74C52.312 234.208 50.798 233.111 49.8652 231.18ZM62.9029 233.597C61.8833 233.97 60.7192 234.298 59.5105 234.501C57.7108 234.804 55.8279 234.827 54.1807 234.324C52.5405 233.823 51.1307 232.799 50.2571 230.99C49.4968 229.417 49.1345 227.232 49.4028 224.251C50.6958 229.377 55.7683 233.997 62.9029 233.597Z" fill="#76716C"/>
<path d="M23.0293 211.035C18.2424 154.904 65.4589 148.595 103.537 150.988C51.9684 149.9 26.9459 175.138 23.0293 211.035Z" fill="#76716C"/>
<path fill-rule="evenodd" clip-rule="evenodd" d="M23.0824 208.802C25.3839 191.762 32.5778 177.236 45.2766 166.973C57.0214 157.481 73.455 151.653 95.0346 150.836C78.3711 150.454 60.887 152.204 47.3088 159.258C39.3596 163.388 32.7523 169.334 28.4277 177.736C24.3331 185.69 22.2771 195.861 23.0824 208.802ZM47.1082 158.872C63.1293 150.549 84.5039 149.574 103.55 150.771L103.532 151.206C77.7827 150.663 58.6904 156.692 45.5502 167.311C32.412 177.929 25.1988 193.156 23.2454 211.059L22.8123 211.054C21.613 196.991 23.6694 186.029 28.0408 177.537C32.4128 169.043 39.092 163.037 47.1082 158.872Z" fill="#76716C"/>
<path d="M99.8376 222.566C97.2266 236.273 104.625 235.837 108.541 234.315C100.055 233.227 100.49 227.788 99.8376 222.566Z" fill="#76716C"/>
<path fill-rule="evenodd" clip-rule="evenodd" d="M101.616 234.329C99.4902 232.836 98.3155 229.394 99.6238 222.525L100.053 222.539C100.124 223.105 100.181 223.663 100.238 224.215C100.314 224.96 100.389 225.694 100.495 226.42C100.677 227.673 100.945 228.851 101.448 229.896C101.949 230.938 102.685 231.85 103.81 232.571C104.939 233.293 106.469 233.83 108.569 234.099L108.62 234.517C107.625 234.904 106.403 235.224 105.169 235.266C103.935 235.308 102.673 235.072 101.616 234.329ZM107.636 234.397C106.863 234.632 106.009 234.802 105.154 234.831C103.982 234.871 102.823 234.645 101.867 233.973C100.115 232.743 98.9423 229.931 99.7923 224.137C99.7958 224.172 99.7993 224.206 99.8028 224.24C99.8806 224.998 99.9584 225.756 100.064 226.483C100.249 227.753 100.525 228.982 101.056 230.085C101.588 231.192 102.376 232.169 103.576 232.937C104.604 233.596 105.926 234.095 107.636 234.397Z" fill="#76716C"/>
<path d="M126.966 251.852C127.281 251.469 127.594 251.063 127.906 250.632C127.657 251.057 127.34 251.465 126.966 251.852C119.928 260.423 112.545 257.028 109.629 254.113C106.8 250.632 106.8 247.151 108.323 243.017C110.969 235.837 109.484 231.269 108.323 229.528C102.579 221.174 99.3248 219.085 97.2264 216.692C83.7066 201.273 93.9775 190.57 97.7733 185.181C97.8794 185.025 97.9873 184.868 98.0968 184.71C97.9953 184.862 97.8873 185.019 97.7733 185.181C87.3404 200.537 93.3975 208.508 102.013 216.692C117.462 230.398 113.11 238.231 111.805 242.582C105.92 258.408 121.799 257.204 126.966 251.852Z" fill="#76716C"/>
<path fill-rule="evenodd" clip-rule="evenodd" d="M97.5945 185.057C97.7007 184.901 97.8086 184.744 97.9182 184.586L98.2779 184.831C98.1756 184.985 98.0668 185.143 97.9524 185.305C92.7573 192.952 91.6951 198.718 92.9607 203.571C94.2304 208.439 97.8534 212.44 102.161 216.532C109.904 223.402 112.716 228.828 113.407 233.11C113.988 236.712 113.06 239.485 112.367 241.553C112.237 241.941 112.115 242.305 112.013 242.644L112.011 242.651L112.009 242.658C110.546 246.591 110.452 249.425 111.169 251.385C111.881 253.334 113.41 254.458 115.296 254.948C117.189 255.44 119.433 255.288 121.529 254.678C123.623 254.068 125.545 253.008 126.804 251.707C127.113 251.33 127.422 250.929 127.73 250.504L128.094 250.742C127.836 251.181 127.51 251.601 127.129 251.997C123.575 256.321 119.91 257.652 116.742 257.507C113.586 257.362 110.962 255.753 109.475 254.267L109.467 254.259L109.46 254.25C108.022 252.48 107.295 250.699 107.128 248.829C106.961 246.963 107.351 245.026 108.119 242.942C110.744 235.818 109.259 231.324 108.143 229.65C103.95 223.552 101.105 220.82 99.0458 218.843C98.2878 218.115 97.6362 217.489 97.0629 216.835C90.2622 209.079 89.4235 202.476 90.7958 197.121C91.9312 192.691 94.5806 189.131 96.5222 186.522C96.9147 185.995 97.2782 185.506 97.5945 185.057ZM94.9257 189.484C93.4516 191.656 91.984 194.238 91.2174 197.229C89.8853 202.427 90.6711 208.886 97.3901 216.549C97.9393 217.175 98.5753 217.786 99.3212 218.502C101.382 220.48 104.28 223.264 108.503 229.405L108.505 229.407C109.71 231.215 111.193 235.859 108.528 243.092C107.772 245.142 107.402 247.012 107.561 248.79C107.72 250.561 108.405 252.259 109.791 253.967C111.221 255.393 113.743 256.934 116.762 257.072C119.247 257.186 122.095 256.351 124.973 253.67C123.969 254.266 122.833 254.752 121.651 255.096C119.501 255.722 117.174 255.886 115.187 255.369C113.192 254.851 111.532 253.644 110.76 251.534C109.994 249.438 110.121 246.49 111.599 242.513C111.704 242.161 111.828 241.79 111.959 241.398C112.65 239.33 113.54 236.667 112.977 233.18C112.308 229.032 109.572 223.689 101.869 216.855L101.866 216.852L101.864 216.85C97.5562 212.758 93.8439 208.682 92.5396 203.681C91.4934 199.669 92.003 195.096 94.9257 189.484Z" fill="#76716C"/>
<path d="M121.596 213.211C124.86 218.778 129.429 231.704 123.99 242.147C125.295 237.143 125.695 228.223 121.596 219.303C118.149 211.801 112.434 202.22 118.893 194.787C119.418 194.043 119.998 193.52 120.508 193.195C119.901 193.713 119.365 194.245 118.893 194.787C116.959 197.532 115.777 203.285 121.596 213.211Z" fill="#76716C"/>
<path fill-rule="evenodd" clip-rule="evenodd" d="M119.065 194.922C119.527 194.391 120.053 193.87 120.65 193.361L120.392 193.012C119.858 193.351 119.26 193.892 118.722 194.653C115.436 198.44 115.257 202.772 116.319 207.071C117.161 210.482 118.791 213.9 120.287 217.034C120.671 217.841 121.047 218.629 121.399 219.394C125.473 228.261 125.074 237.129 123.779 242.092L124.183 242.247C126.932 236.97 127.147 231.076 126.272 225.815C125.396 220.553 123.428 215.905 121.784 213.101C115.994 203.226 117.202 197.573 119.065 194.922ZM117.556 197.072C115.862 200.169 115.898 203.552 116.741 206.967C117.571 210.33 119.176 213.695 120.669 216.825C121.057 217.638 121.437 218.435 121.794 219.212C125.431 227.126 125.548 235.04 124.622 240.259C126.524 235.569 126.609 230.498 125.842 225.886C124.977 220.682 123.028 216.084 121.409 213.321C116.891 205.615 116.552 200.369 117.556 197.072Z" fill="#76716C"/>
<path d="M129.865 172.744C109.629 181.664 99.62 158.168 115.069 149.03C107.236 157.08 109.847 174.92 129.865 172.744C129.865 171.439 129.865 164.912 132.258 163.172C130.999 164.912 130.735 168.828 132.258 171.439L129.865 172.744Z" fill="#76716C"/>
<path fill-rule="evenodd" clip-rule="evenodd" d="M108.892 167.76C105.74 161.759 107.131 153.472 114.958 148.843L115.225 149.182C111.367 153.146 110.082 159.526 112.223 164.638C113.292 167.189 115.215 169.427 118.105 170.895C120.959 172.345 124.768 173.05 129.647 172.549C129.649 171.753 129.673 169.945 129.949 168.089C130.099 167.075 130.327 166.038 130.671 165.14C131.014 164.247 131.482 163.467 132.13 162.996L132.434 163.299C131.84 164.121 131.465 165.486 131.432 166.984C131.4 168.477 131.71 170.067 132.446 171.329L132.559 171.523L129.961 172.94L129.952 172.943C124.855 175.191 120.381 175.404 116.779 174.295C113.179 173.186 110.468 170.76 108.892 167.76ZM128.464 173.084C124.099 173.364 120.604 172.653 117.908 171.283C114.923 169.766 112.929 167.449 111.822 164.806C109.812 160.009 110.725 154.148 113.894 150.052C107.416 154.666 106.409 162.098 109.278 167.558C110.802 170.46 113.423 172.806 116.907 173.879C120.084 174.858 123.994 174.783 128.464 173.084ZM130.083 172.377L131.961 171.353C131.254 170.041 130.965 168.452 130.997 166.974C131.014 166.197 131.12 165.441 131.305 164.764C131.225 164.933 131.149 165.11 131.078 165.296C130.749 166.153 130.527 167.155 130.379 168.153C130.126 169.855 130.089 171.52 130.083 172.377Z" fill="#76716C"/>
<path d="M136.827 150.771C136.873 150.778 136.918 150.784 136.963 150.79C137.6 150.742 139.491 149.309 140.091 147.507C140.522 148.655 141.165 151.365 136.963 150.79C136.908 150.794 136.862 150.788 136.827 150.771Z" fill="#76716C"/>
<path fill-rule="evenodd" clip-rule="evenodd" d="M140.079 146.855L140.295 147.431C140.406 147.726 140.532 148.128 140.591 148.556C140.649 148.983 140.641 149.454 140.465 149.878C140.286 150.311 139.939 150.675 139.36 150.886C138.793 151.092 138.013 151.151 136.954 151.008C136.883 151.011 136.804 151.002 136.73 150.965L136.86 150.555C136.896 150.561 136.931 150.566 136.967 150.571C137.076 150.556 137.268 150.481 137.522 150.325C137.784 150.164 138.087 149.934 138.392 149.648C139.002 149.074 139.599 148.294 139.885 147.438L140.079 146.855ZM137.826 150.648C138.423 150.668 138.874 150.6 139.211 150.477C139.679 150.306 139.932 150.028 140.063 149.712C140.198 149.386 140.212 149.001 140.159 148.615C140.137 148.452 140.104 148.293 140.065 148.142C139.717 148.855 139.202 149.484 138.69 149.965C138.395 150.242 138.096 150.475 137.826 150.648Z" fill="#76716C"/>
<path d="M137.262 174.92C137.335 176.733 132.476 184.928 125.295 185.798C127.253 185.291 133.346 182.317 136.61 172.527C140.526 173.397 147.881 172.483 151.188 160.996C153.582 161.866 159.892 160.996 165.331 156.862C163.808 158.02 160.109 161.431 152.276 163.389C150.535 167.378 148.795 176.008 137.262 174.92Z" fill="#76716C"/>
<path fill-rule="evenodd" clip-rule="evenodd" d="M157.066 160.594C159.596 159.975 162.506 158.736 165.2 156.689L165.463 157.036C165.312 157.151 165.138 157.288 164.941 157.445C163.166 158.855 159.462 161.797 152.433 163.574C152.25 164.001 152.065 164.485 151.865 165.005C151.145 166.878 150.24 169.234 148.609 171.197C146.493 173.743 143.163 175.637 137.469 175.157C137.442 175.384 137.372 175.651 137.269 175.944C137.125 176.357 136.907 176.84 136.625 177.365C136.059 178.417 135.225 179.652 134.162 180.857C132.041 183.261 128.986 185.57 125.322 186.014L125.241 185.588C127.128 185.098 133.163 182.178 136.403 172.458L136.466 172.272L136.657 172.314C138.575 172.741 141.335 172.73 144.02 171.206C146.701 169.685 149.337 166.639 150.979 160.936L151.044 160.712L151.263 160.792C152.4 161.205 154.525 161.216 157.066 160.594ZM160.89 159.738C159.608 160.308 158.349 160.728 157.169 161.017C154.741 161.611 152.621 161.654 151.334 161.273C149.664 166.92 147.002 170.015 144.235 171.585C141.525 173.122 138.742 173.181 136.754 172.78C134.327 179.922 130.394 183.43 127.68 184.995C130.146 184.09 132.246 182.37 133.836 180.569C134.876 179.389 135.692 178.181 136.241 177.159C136.516 176.648 136.723 176.186 136.858 175.8C136.996 175.409 137.053 175.114 137.045 174.929L137.035 174.68L137.283 174.703C142.982 175.241 146.228 173.381 148.274 170.919C149.855 169.017 150.722 166.76 151.44 164.894C151.661 164.319 151.868 163.781 152.077 163.302L152.12 163.204L152.223 163.178C156.011 162.231 158.824 160.944 160.89 159.738Z" fill="#76716C"/>
<path d="M187.09 143.156C187.612 144.461 179.257 152.816 149.665 158.385L153.582 156.862C153.582 154.687 155.322 151.423 158.804 149.9C160.109 149.9 172.294 149.465 183.826 143.591C183.826 143.591 186.655 142.068 187.09 143.156Z" fill="#76716C"/>
<path fill-rule="evenodd" clip-rule="evenodd" d="M186.403 142.548C186.768 142.559 187.136 142.686 187.292 143.075C187.35 143.221 187.336 143.385 187.29 143.543C187.242 143.704 187.153 143.882 187.028 144.075C186.778 144.461 186.364 144.931 185.77 145.465C184.58 146.535 182.642 147.885 179.77 149.365C174.024 152.325 164.516 155.812 149.705 158.599L149.586 158.183L153.367 156.713C153.443 154.449 155.239 151.222 158.717 149.701L158.758 149.683H158.804C160.094 149.683 172.238 149.249 183.725 143.398L183.727 143.397L183.826 143.591L183.929 143.783L183.925 143.785C172.473 149.618 160.386 150.108 158.85 150.118C155.469 151.616 153.799 154.788 153.799 156.862V157.011L152.007 157.708C165.432 155.01 174.184 151.753 179.571 148.978C182.421 147.51 184.324 146.179 185.479 145.141C186.057 144.622 186.441 144.181 186.663 143.838C186.774 143.667 186.84 143.527 186.872 143.419C186.905 143.308 186.895 143.255 186.888 143.237C186.826 143.082 186.678 142.992 186.39 142.982C186.101 142.973 185.735 143.053 185.362 143.173C184.992 143.291 184.634 143.444 184.366 143.568C184.233 143.629 184.123 143.683 184.047 143.722C184.009 143.741 183.979 143.757 183.959 143.767L183.936 143.779L183.931 143.782L183.929 143.783M183.727 143.397L183.732 143.395L183.757 143.381C183.779 143.37 183.81 143.354 183.851 143.334C183.931 143.293 184.045 143.237 184.184 143.173C184.46 143.045 184.836 142.885 185.228 142.758C185.616 142.634 186.039 142.536 186.403 142.548" fill="#76716C"/>
<path d="M186.872 138.805C186.872 139.893 180.998 145.332 169.901 147.29L172.947 142.721C174.688 142.721 178.387 141.851 184.697 138.805C184.697 138.805 186.872 137.717 186.872 138.805Z" fill="#76716C"/>
<path fill-rule="evenodd" clip-rule="evenodd" d="M186.949 138.356C187.046 138.478 187.09 138.632 187.09 138.805C187.09 138.917 187.054 139.035 187.002 139.148C186.949 139.264 186.872 139.392 186.776 139.527C186.583 139.799 186.3 140.118 185.932 140.471C185.194 141.177 184.1 142.03 182.661 142.907C179.783 144.661 175.514 146.52 169.939 147.504L169.438 147.592L172.831 142.503H172.947C174.636 142.503 178.298 141.652 184.601 138.609L184.602 138.609L184.602 138.609L184.607 138.606L184.627 138.597C184.643 138.589 184.668 138.577 184.699 138.563C184.76 138.534 184.848 138.495 184.953 138.451C185.162 138.364 185.445 138.257 185.732 138.186C186.01 138.116 186.327 138.07 186.585 138.135C186.72 138.168 186.852 138.235 186.949 138.356ZM184.791 139.001C178.61 141.984 174.9 142.9 173.064 142.937L170.366 146.984C175.641 145.989 179.688 144.209 182.435 142.535C183.852 141.671 184.92 140.838 185.631 140.157C185.987 139.816 186.249 139.517 186.421 139.275C186.507 139.154 186.568 139.051 186.606 138.967C186.646 138.88 186.655 138.828 186.655 138.805C186.655 138.706 186.631 138.655 186.609 138.628C186.587 138.601 186.549 138.574 186.48 138.557C186.331 138.52 186.103 138.541 185.837 138.608C185.58 138.672 185.319 138.77 185.12 138.853C185.022 138.894 184.939 138.931 184.882 138.957C184.853 138.971 184.831 138.981 184.816 138.989L184.799 138.997L184.795 138.999L184.794 138.999" fill="#76716C"/>
<path d="M168.16 147.725H163.156C168.813 142.286 178.822 122.923 166.855 108.999C163.591 105.518 158.673 101.297 130.3 104.43C129.212 104.43 124.207 104.647 126.166 95.7274V96.5976H126.601C126.311 98.3381 126.166 100.731 127.036 102.472C128.777 103.995 127.471 103.995 145.313 102.689C161.197 101.527 165.778 105.083 167.29 106.388C172.512 110.897 181.813 125.399 168.16 147.725Z" fill="#76716C"/>
<path fill-rule="evenodd" clip-rule="evenodd" d="M124.796 92.5277L125.513 93.2441V94.9659L126.383 95.6186V96.3801H126.858L126.816 96.6334C126.528 98.3559 126.396 100.666 127.212 102.337C127.31 102.423 127.398 102.505 127.48 102.58L127.483 102.582C127.572 102.665 127.653 102.739 127.732 102.807C127.89 102.944 128.035 103.05 128.212 103.136C128.568 103.308 129.085 103.41 130.139 103.424C132.018 103.448 135.491 103.193 142.536 102.675C143.401 102.611 144.321 102.544 145.298 102.472C153.256 101.89 158.398 102.488 161.749 103.403C165.105 104.32 166.657 105.554 167.432 106.223C170.077 108.507 173.736 113.302 175.017 120.336C176.3 127.376 175.196 136.636 168.346 147.838L168.282 147.942H162.615L163.005 147.568C165.8 144.88 169.698 138.718 171.403 131.494C173.105 124.278 172.614 116.036 166.693 109.144C165.882 108.28 164.979 107.381 163.642 106.561C162.303 105.74 160.52 104.992 157.948 104.447C152.798 103.355 144.503 103.08 130.324 104.646L130.312 104.647H130.3C130.275 104.647 130.249 104.648 130.22 104.648C129.621 104.651 128.1 104.658 126.942 103.583C125.727 102.455 124.984 100.214 125.924 95.8177L125.078 95.1835V93.4243L124.489 92.8354L124.796 92.5277ZM126.174 96.8152C125.534 100.54 126.268 102.363 127.239 103.264C128.267 104.219 129.629 104.214 130.229 104.212C130.249 104.212 130.269 104.212 130.288 104.212C144.475 102.647 152.822 102.916 158.038 104.021C160.651 104.575 162.482 105.339 163.87 106.19C165.258 107.042 166.193 107.975 167.013 108.85L167.017 108.853L167.02 108.857C173.063 115.888 173.55 124.289 171.826 131.594C170.178 138.577 166.503 144.591 163.682 147.507H168.038C174.784 136.43 175.846 127.313 174.589 120.414C173.327 113.488 169.725 108.778 167.148 106.553C166.411 105.917 164.916 104.72 161.634 103.823C158.345 102.925 153.255 102.327 145.329 102.906C144.347 102.978 143.422 103.046 142.552 103.11C135.526 103.626 132.032 103.883 130.134 103.859C129.067 103.845 128.469 103.743 128.023 103.528C127.798 103.42 127.621 103.287 127.447 103.137C127.363 103.064 127.278 102.986 127.19 102.905L127.185 102.9C127.094 102.816 126.999 102.729 126.893 102.636L126.861 102.607L126.841 102.569C125.981 100.848 126.083 98.5391 126.346 96.8152H126.174Z" fill="#76716C"/>
<path d="M133.128 111.392C123.554 111.827 112.24 102.907 122.684 93.1166C114.851 100.949 121.596 109.667 131.823 109.216C136.755 108.999 147.968 108.955 153.364 110.522C156.7 111.102 163.678 114.96 164.896 125.751C164.824 129.232 161.937 136.02 151.841 136.194C150.028 134.889 144.443 134.236 136.827 137.499C128.559 133.7 115.286 136.194 108.759 147.072C111.152 139.893 122.467 130.537 137.262 134.671C139.003 133.366 146.619 131.408 153.364 133.366C153.364 133.366 158.439 132.495 159.674 130.755C161.27 128.507 163.112 122.401 157.716 115.961C154.887 114.003 153.343 110.473 133.128 111.392Z" fill="#76716C"/>
<path fill-rule="evenodd" clip-rule="evenodd" d="M118.348 100.138C118.614 97.8667 119.899 95.4293 122.535 92.9579L122.838 93.2705C120.905 95.2034 119.885 97.1771 119.584 99.0346C119.284 100.891 119.699 102.647 120.664 104.155C122.599 107.177 126.758 109.222 131.813 108.999C134.284 108.89 138.327 108.825 142.428 108.983C146.517 109.14 150.687 109.52 153.413 110.309C156.844 110.912 163.884 114.847 165.112 125.727L165.114 125.741L165.114 125.756C165.076 127.545 164.319 130.164 162.287 132.36C160.25 134.562 156.945 136.324 151.845 136.411L151.772 136.413L151.714 136.371C150.864 135.759 149.072 135.27 146.517 135.351C143.972 135.431 140.699 136.077 136.913 137.699L136.824 137.737L136.737 137.697C128.563 133.941 115.413 136.406 108.945 147.184L108.552 147.003C110.975 139.735 122.357 130.338 137.22 134.434C137.698 134.103 138.493 133.752 139.499 133.434C140.575 133.093 141.913 132.785 143.407 132.579C146.378 132.17 149.98 132.167 153.376 133.143L153.383 133.141C153.419 133.135 153.474 133.125 153.543 133.111C153.683 133.084 153.884 133.044 154.13 132.99C154.621 132.882 155.288 132.72 155.992 132.505C156.698 132.289 157.435 132.021 158.069 131.703C158.709 131.381 159.219 131.02 159.497 130.629C161.041 128.454 162.869 122.469 157.568 116.123C157.229 115.887 156.913 115.633 156.584 115.371C155.518 114.517 154.329 113.565 151.878 112.805C148.647 111.804 143.238 111.15 133.138 111.609C128.293 111.829 122.999 109.687 120.23 106.225C118.84 104.488 118.081 102.412 118.348 100.138ZM153.364 133.366L153.401 133.58L153.352 133.589L153.303 133.575C149.968 132.606 146.41 132.605 143.466 133.01C141.995 133.213 140.681 133.516 139.63 133.848C138.572 134.183 137.798 134.541 137.393 134.845L137.307 134.909L137.204 134.881C124.076 131.213 113.729 138.254 110.003 144.843C116.927 135.703 129.031 133.734 136.83 137.262C140.623 135.648 143.918 134.998 146.503 134.916C149.044 134.835 150.926 135.304 151.908 135.975C156.863 135.874 160.029 134.161 161.968 132.065C163.916 129.959 164.639 127.452 164.678 125.761C163.467 115.082 156.572 111.3 153.327 110.736L153.315 110.734L153.303 110.731C150.633 109.955 146.504 109.575 142.411 109.417C138.324 109.26 134.293 109.325 131.833 109.434C126.661 109.662 122.335 107.573 120.298 104.39C119.278 102.796 118.836 100.933 119.155 98.9651C119.21 98.6204 119.289 98.273 119.393 97.9238C119.064 98.6996 118.866 99.4565 118.78 100.189C118.529 102.327 119.239 104.29 120.569 105.953C123.239 109.29 128.39 111.389 133.119 111.175C143.234 110.715 148.704 111.366 152.006 112.39C154.544 113.176 155.809 114.19 156.883 115.05C157.21 115.312 157.518 115.559 157.84 115.782L157.864 115.798L157.883 115.821C163.35 122.346 161.497 128.563 159.852 130.881C159.511 131.36 158.924 131.76 158.265 132.092C157.6 132.425 156.837 132.702 156.119 132.921C155.401 133.141 154.722 133.305 154.223 133.415C153.973 133.47 153.768 133.511 153.626 133.539C153.554 133.552 153.498 133.563 153.46 133.57C153.441 133.573 153.426 133.576 153.416 133.577L153.405 133.579L153.402 133.58L153.401 133.58L153.401 133.58C153.401 133.58 153.401 133.58 153.364 133.366Z" fill="#76716C"/>
<path d="M379.474 244.139C377.966 246.509 377.257 247.622 364.264 246.063C366.585 246.228 372.228 246.938 374.491 239.754C374.926 237.433 373.751 227.875 365.57 215.169C371.299 221.188 382.106 235.402 379.495 244.105L379.474 244.139Z" fill="#76716C"/>
<path fill-rule="evenodd" clip-rule="evenodd" d="M379.295 244.014C379.922 241.898 379.743 239.434 379.017 236.817C378.288 234.19 377.012 231.426 375.471 228.739C372.927 224.299 369.671 220.085 367.006 217.062C370.343 222.598 372.337 227.463 373.47 231.294C374.104 233.438 374.468 235.259 374.647 236.693C374.824 238.122 374.819 239.181 374.704 239.794L374.702 239.807L374.698 239.819C373.548 243.472 371.524 245.145 369.471 245.87C368.963 246.049 368.454 246.17 367.959 246.248C372.141 246.65 374.59 246.655 376.135 246.361C377.101 246.176 377.7 245.877 378.146 245.493C378.599 245.105 378.91 244.62 379.29 244.022L379.295 244.014ZM375.849 228.523C372.747 223.11 368.601 218.038 365.727 215.019L365.387 215.287C369.466 221.623 371.797 227.17 373.053 231.417C373.681 233.541 374.04 235.339 374.215 236.747C374.389 238.149 374.38 239.151 374.279 239.701C373.166 243.224 371.239 244.785 369.327 245.459C367.535 246.092 365.734 245.956 364.548 245.866C364.454 245.859 364.365 245.852 364.279 245.846L364.238 246.279C370.73 247.058 374.188 247.175 376.216 246.788C377.24 246.593 377.913 246.267 378.43 245.824C378.936 245.389 379.278 244.852 379.648 244.27L379.695 244.196L379.704 244.167C380.372 241.938 380.178 239.372 379.436 236.701C378.694 234.027 377.4 231.229 375.849 228.523Z" fill="#76716C"/>
<path d="M295.289 211.471C347.51 214.951 357.954 231.921 362.741 235.62C361 227.57 345.116 209.077 295.289 211.471Z" fill="#76716C"/>
<path fill-rule="evenodd" clip-rule="evenodd" d="M347.147 219.435C336.687 214.083 320.219 210.055 295.278 211.253L295.274 211.688C321.363 213.427 336.998 218.534 346.701 223.656C353.968 227.492 357.892 231.319 360.433 233.796C361.29 234.632 361.99 235.315 362.608 235.792L363.08 236.156L362.954 235.574C362.065 231.465 357.6 224.784 347.147 219.435ZM362.365 235.025C361.905 234.62 361.386 234.114 360.784 233.527C358.25 231.056 354.239 227.143 346.904 223.271C337.625 218.373 323 213.511 299.169 211.542C321.9 210.921 337.122 214.795 346.948 219.823C356.785 224.856 361.204 231.038 362.365 235.025Z" fill="#76716C"/>
<path d="M337.936 222.784C340.112 237.796 328.072 235.62 322.922 233.227C331.408 234.5 337.283 228.683 337.936 222.784Z" fill="#76716C"/>
<path fill-rule="evenodd" clip-rule="evenodd" d="M337.428 231.18C338.357 229.257 338.699 226.529 338.151 222.753L337.72 222.76C337.08 228.539 331.316 234.266 322.955 233.012L322.831 233.424C324.134 234.03 325.871 234.621 327.711 234.93C329.549 235.239 331.505 235.27 333.24 234.74C334.981 234.208 336.495 233.111 337.428 231.18ZM324.39 233.597C325.41 233.97 326.574 234.298 327.783 234.501C329.582 234.804 331.465 234.827 333.113 234.324C334.753 233.823 336.162 232.799 337.036 230.99C337.796 229.417 338.159 227.232 337.89 224.251C336.597 229.377 331.525 233.997 324.39 233.597Z" fill="#76716C"/>
<path d="M364.264 211.035C369.051 154.904 321.834 148.595 283.757 150.988C335.325 149.9 360.347 175.138 364.264 211.035Z" fill="#76716C"/>
<path fill-rule="evenodd" clip-rule="evenodd" d="M364.211 208.802C361.909 191.762 354.715 177.236 342.017 166.973C330.272 157.481 313.838 151.653 292.259 150.836C308.922 150.454 326.406 152.204 339.984 159.258C347.934 163.388 354.541 169.334 358.866 177.736C362.96 185.69 365.016 195.861 364.211 208.802ZM340.185 158.872C324.164 150.549 302.789 149.574 283.743 150.771L283.761 151.206C309.51 150.663 328.603 156.692 341.743 167.311C354.881 177.929 362.094 193.156 364.048 211.059L364.481 211.054C365.68 196.991 363.624 186.029 359.252 177.537C354.88 169.043 348.201 163.037 340.185 158.872Z" fill="#76716C"/>
<path d="M287.456 222.566C290.067 236.273 282.669 235.837 278.752 234.315C287.238 233.227 286.803 227.788 287.456 222.566Z" fill="#76716C"/>
<path fill-rule="evenodd" clip-rule="evenodd" d="M285.677 234.329C287.803 232.836 288.978 229.394 287.669 222.525L287.24 222.539C287.169 223.105 287.112 223.663 287.055 224.215C286.979 224.96 286.904 225.694 286.798 226.42C286.616 227.673 286.348 228.851 285.845 229.896C285.344 230.938 284.609 231.85 283.483 232.571C282.355 233.293 280.824 233.83 278.724 234.099L278.673 234.517C279.669 234.904 280.89 235.224 282.124 235.266C283.358 235.308 284.62 235.072 285.677 234.329ZM279.657 234.397C280.43 234.632 281.284 234.802 282.139 234.831C283.312 234.871 284.471 234.645 285.427 233.973C287.178 232.743 288.351 229.931 287.501 224.137C287.497 224.172 287.494 224.206 287.49 224.24C287.413 224.998 287.335 225.756 287.229 226.483C287.044 227.753 286.768 228.982 286.237 230.085C285.705 231.192 284.917 232.169 283.718 232.937C282.69 233.596 281.367 234.095 279.657 234.397Z" fill="#76716C"/>
<path d="M260.327 251.852C260.013 251.469 259.699 251.063 259.387 250.632C259.636 251.057 259.954 251.465 260.327 251.852C267.366 260.423 274.748 257.028 277.664 254.113C280.493 250.632 280.493 247.151 278.97 243.017C276.324 235.837 277.809 231.269 278.97 229.528C284.714 221.174 287.968 219.085 290.067 216.692C303.587 201.273 293.316 190.57 289.52 185.181C289.414 185.025 289.306 184.868 289.196 184.71C289.298 184.862 289.406 185.019 289.52 185.181C299.953 200.537 293.896 208.508 285.28 216.692C269.831 230.398 274.183 238.231 275.488 242.582C281.373 258.408 265.494 257.204 260.327 251.852Z" fill="#76716C"/>
<path fill-rule="evenodd" clip-rule="evenodd" d="M289.699 185.057C289.593 184.901 289.485 184.744 289.375 184.586L289.015 184.831C289.118 184.985 289.226 185.143 289.341 185.305C294.536 192.952 295.598 198.718 294.333 203.571C293.063 208.439 289.44 212.44 285.132 216.532C277.389 223.402 274.577 228.828 273.886 233.11C273.305 236.712 274.234 239.485 274.926 241.553C275.056 241.941 275.178 242.305 275.28 242.644L275.282 242.651L275.284 242.658C276.747 246.591 276.841 249.425 276.124 251.385C275.412 253.334 273.883 254.458 271.997 254.948C270.105 255.44 267.86 255.288 265.764 254.678C263.67 254.068 261.748 253.008 260.489 251.707C260.18 251.33 259.871 250.929 259.563 250.504L259.199 250.742C259.457 251.181 259.783 251.601 260.164 251.997C263.718 256.321 267.384 257.652 270.551 257.507C273.708 257.362 276.331 255.753 277.818 254.267L277.826 254.259L277.833 254.25C279.272 252.48 279.998 250.699 280.166 248.829C280.333 246.963 279.942 245.026 279.174 242.942C276.549 235.818 278.034 231.324 279.15 229.65C283.343 223.552 286.188 220.82 288.247 218.843C289.005 218.115 289.657 217.489 290.23 216.835C297.031 209.079 297.87 202.476 296.497 197.121C295.362 192.691 292.713 189.131 290.771 186.522C290.379 185.995 290.015 185.506 289.699 185.057ZM292.368 189.484C293.842 191.656 295.309 194.238 296.076 197.229C297.408 202.427 296.622 208.886 289.903 216.549C289.354 217.175 288.718 217.786 287.972 218.502C285.912 220.48 283.013 223.264 278.79 229.405L278.789 229.407C277.583 231.215 276.1 235.859 278.766 243.092C279.521 245.142 279.891 247.012 279.732 248.79C279.573 250.561 278.888 252.259 277.502 253.967C276.072 255.393 273.55 256.934 270.532 257.072C268.046 257.186 265.198 256.351 262.321 253.67C263.324 254.266 264.46 254.752 265.642 255.096C267.792 255.722 270.119 255.886 272.107 255.369C274.101 254.851 275.762 253.644 276.533 251.534C277.3 249.438 277.172 246.49 275.695 242.513C275.589 242.161 275.465 241.79 275.334 241.398C274.643 239.33 273.754 236.667 274.316 233.18C274.985 229.032 277.721 223.689 285.424 216.855L285.427 216.852L285.43 216.85C289.737 212.758 293.449 208.682 294.754 203.681C295.8 199.669 295.29 195.096 292.368 189.484Z" fill="#76716C"/>
<path d="M265.697 213.211C262.433 218.778 257.864 231.704 263.304 242.147C261.998 237.143 261.598 228.223 265.697 219.303C269.144 211.801 274.859 202.22 268.4 194.787C267.876 194.043 267.296 193.52 266.785 193.195C267.392 193.713 267.929 194.245 268.4 194.787C270.335 197.532 271.517 203.285 265.697 213.211Z" fill="#76716C"/>
<path fill-rule="evenodd" clip-rule="evenodd" d="M268.229 194.922C267.766 194.391 267.24 193.87 266.644 193.361L266.902 193.012C267.435 193.351 268.033 193.892 268.571 194.653C271.857 198.44 272.036 202.772 270.975 207.071C270.133 210.482 268.502 213.9 267.007 217.034C266.622 217.841 266.246 218.629 265.895 219.394C261.82 228.261 262.219 237.129 263.514 242.092L263.11 242.247C260.362 236.97 260.147 231.076 261.022 225.815C261.897 220.553 263.865 215.905 265.509 213.101C271.299 203.226 270.091 197.573 268.229 194.922ZM269.737 197.072C271.431 200.169 271.395 203.552 270.552 206.967C269.722 210.33 268.117 213.695 266.624 216.825C266.236 217.638 265.856 218.435 265.499 219.212C261.862 227.126 261.745 235.04 262.671 240.259C260.769 235.569 260.684 230.498 261.451 225.886C262.317 220.682 264.265 216.084 265.885 213.321C270.402 205.615 270.741 200.369 269.737 197.072Z" fill="#76716C"/>
<path d="M257.429 172.744C277.664 181.664 287.673 158.168 272.224 149.03C280.058 157.08 277.447 174.92 257.429 172.744C257.429 171.439 257.429 164.912 255.035 163.172C256.294 164.912 256.558 168.828 255.035 171.439L257.429 172.744Z" fill="#76716C"/>
<path fill-rule="evenodd" clip-rule="evenodd" d="M278.401 167.76C281.554 161.759 280.162 153.472 272.335 148.843L272.069 149.182C275.926 153.146 277.211 159.526 275.07 164.638C274.001 167.189 272.078 169.427 269.189 170.895C266.335 172.345 262.526 173.05 257.646 172.549C257.644 171.753 257.621 169.945 257.345 168.089C257.194 167.075 256.966 166.038 256.622 165.14C256.279 164.247 255.811 163.467 255.163 162.996L254.859 163.299C255.453 164.121 255.828 165.486 255.861 166.984C255.893 168.477 255.584 170.067 254.847 171.329L254.734 171.523L257.332 172.94L257.341 172.943C262.439 175.191 266.913 175.404 270.514 174.295C274.114 173.186 276.825 170.76 278.401 167.76ZM258.829 173.084C263.195 173.364 266.689 172.653 269.386 171.283C272.371 169.766 274.364 167.449 275.471 164.806C277.481 160.009 276.568 154.148 273.399 150.052C279.877 154.666 280.884 162.098 278.016 167.558C276.491 170.46 273.87 172.806 270.386 173.879C267.209 174.858 263.299 174.783 258.829 173.084ZM257.21 172.377L255.332 171.353C256.039 170.041 256.328 168.452 256.296 166.974C256.279 166.197 256.173 165.441 255.988 164.764C256.069 164.933 256.144 165.11 256.216 165.296C256.544 166.153 256.766 167.155 256.914 168.153C257.167 169.855 257.205 171.52 257.21 172.377Z" fill="#76716C"/>
<path d="M250.466 150.771C250.42 150.778 250.375 150.784 250.33 150.79C249.693 150.742 247.803 149.309 247.202 147.507C246.771 148.655 246.128 151.365 250.33 150.79C250.385 150.794 250.431 150.788 250.466 150.771Z" fill="#76716C"/>
<path fill-rule="evenodd" clip-rule="evenodd" d="M247.214 146.855L246.998 147.431C246.887 147.726 246.761 148.128 246.702 148.556C246.644 148.983 246.652 149.454 246.828 149.878C247.007 150.311 247.354 150.675 247.933 150.886C248.5 151.092 249.28 151.151 250.339 151.008C250.41 151.011 250.489 151.002 250.563 150.965L250.433 150.555C250.397 150.561 250.362 150.566 250.326 150.571C250.217 150.556 250.025 150.481 249.771 150.325C249.509 150.164 249.206 149.934 248.901 149.648C248.291 149.074 247.694 148.294 247.408 147.438L247.214 146.855ZM249.467 150.648C248.87 150.668 248.419 150.6 248.082 150.477C247.613 150.306 247.361 150.028 247.23 149.712C247.095 149.386 247.081 149.001 247.134 148.615C247.156 148.452 247.189 148.293 247.228 148.142C247.576 148.855 248.091 149.484 248.603 149.965C248.898 150.242 249.197 150.475 249.467 150.648Z" fill="#76716C"/>
<path d="M250.03 174.92C249.958 176.733 254.817 184.928 261.998 185.798C260.04 185.291 253.947 182.317 250.683 172.527C246.767 173.397 239.412 172.483 236.105 160.996C233.711 161.866 227.401 160.996 221.962 156.862C223.485 158.02 227.184 161.431 235.017 163.389C236.758 167.378 238.498 176.008 250.03 174.92Z" fill="#76716C"/>
<path fill-rule="evenodd" clip-rule="evenodd" d="M230.227 160.594C227.697 159.975 224.787 158.736 222.093 156.689L221.83 157.036C221.982 157.151 222.155 157.288 222.352 157.445C224.127 158.855 227.831 161.797 234.86 163.574C235.043 164.001 235.229 164.485 235.429 165.005C236.148 166.878 237.053 169.234 238.685 171.197C240.8 173.743 244.13 175.637 249.825 175.157C249.852 175.384 249.921 175.651 250.024 175.944C250.169 176.357 250.386 176.84 250.668 177.365C251.234 178.417 252.069 179.652 253.131 180.857C255.253 183.261 258.307 185.57 261.972 186.014L262.052 185.588C260.165 185.098 254.13 182.178 250.89 172.458L250.828 172.272L250.636 172.314C248.718 172.741 245.958 172.73 243.273 171.206C240.592 169.685 237.956 166.639 236.314 160.936L236.25 160.712L236.031 160.792C234.894 161.205 232.768 161.216 230.227 160.594ZM226.404 159.738C227.685 160.308 228.944 160.728 230.124 161.017C232.552 161.611 234.672 161.654 235.959 161.273C237.629 166.92 240.291 170.015 243.058 171.585C245.768 173.122 248.551 173.181 250.539 172.78C252.967 179.922 256.899 183.43 259.613 184.995C257.147 184.09 255.047 182.37 253.458 180.569C252.417 179.389 251.601 178.181 251.052 177.159C250.777 176.648 250.57 176.186 250.435 175.8C250.298 175.409 250.241 175.114 250.248 174.929L250.258 174.68L250.01 174.703C244.311 175.241 241.065 173.381 239.019 170.919C237.439 169.017 236.571 166.76 235.853 164.894C235.632 164.319 235.425 163.781 235.216 163.302L235.174 163.204L235.07 163.178C231.282 162.231 228.469 160.944 226.404 159.738Z" fill="#76716C"/>
<path d="M200.203 143.156C199.681 144.461 208.036 152.816 237.628 158.385L233.712 156.862C233.712 154.687 231.971 151.423 228.49 149.9C227.184 149.9 214.999 149.465 203.467 143.591C203.467 143.591 200.638 142.068 200.203 143.156Z" fill="#76716C"/>
<path fill-rule="evenodd" clip-rule="evenodd" d="M200.89 142.548C200.525 142.559 200.157 142.686 200.001 143.075C199.943 143.221 199.957 143.385 200.004 143.543C200.051 143.704 200.14 143.882 200.265 144.075C200.515 144.461 200.929 144.931 201.524 145.465C202.714 146.535 204.651 147.885 207.523 149.365C213.269 152.325 222.777 155.812 237.588 158.599L237.707 158.183L233.927 156.713C233.85 154.449 232.054 151.222 228.577 149.701L228.535 149.683H228.489C227.2 149.683 215.056 149.249 203.568 143.398L203.566 143.397L203.467 143.591L203.364 143.783L203.368 143.785C214.82 149.618 226.907 150.108 228.443 150.118C231.824 151.616 233.494 154.788 233.494 156.862V157.011L235.286 157.708C221.861 155.01 213.109 151.753 207.723 148.978C204.872 147.51 202.969 146.179 201.815 145.141C201.237 144.622 200.852 144.181 200.63 143.838C200.519 143.667 200.453 143.527 200.421 143.419C200.388 143.308 200.398 143.255 200.405 143.237C200.467 143.082 200.615 142.992 200.903 142.982C201.192 142.973 201.558 143.053 201.932 143.173C202.301 143.291 202.659 143.444 202.927 143.568C203.06 143.629 203.17 143.683 203.246 143.722C203.285 143.741 203.314 143.757 203.334 143.767L203.357 143.779L203.362 143.782L203.364 143.783M203.566 143.397L203.561 143.395L203.536 143.381C203.514 143.37 203.483 143.354 203.443 143.334C203.363 143.293 203.248 143.237 203.11 143.173C202.833 143.045 202.457 142.885 202.065 142.758C201.677 142.634 201.254 142.536 200.89 142.548" fill="#76716C"/>
<path d="M200.421 138.805C200.421 139.893 206.296 145.332 217.393 147.29L214.346 142.721C212.606 142.721 208.907 141.851 202.597 138.805C202.597 138.805 200.421 137.717 200.421 138.805Z" fill="#76716C"/>
<path fill-rule="evenodd" clip-rule="evenodd" d="M200.344 138.356C200.247 138.478 200.203 138.632 200.203 138.805C200.203 138.917 200.24 139.035 200.292 139.148C200.345 139.264 200.421 139.392 200.518 139.527C200.71 139.799 200.993 140.118 201.362 140.471C202.099 141.177 203.193 142.03 204.632 142.907C207.511 144.661 211.779 146.52 217.355 147.504L217.856 147.592L214.463 142.503H214.346C212.657 142.503 208.996 141.652 202.692 138.609L202.692 138.609L202.691 138.609L202.687 138.606L202.667 138.597C202.65 138.589 202.626 138.577 202.595 138.563C202.533 138.534 202.446 138.495 202.34 138.451C202.131 138.364 201.848 138.257 201.562 138.186C201.283 138.116 200.967 138.07 200.708 138.135C200.573 138.168 200.441 138.235 200.344 138.356ZM202.502 139.001C208.683 141.984 212.394 142.9 214.229 142.937L216.927 146.984C211.652 145.989 207.605 144.209 204.859 142.535C203.442 141.671 202.373 140.838 201.663 140.157C201.307 139.816 201.044 139.517 200.872 139.275C200.786 139.154 200.726 139.051 200.687 138.967C200.648 138.88 200.638 138.828 200.638 138.805C200.638 138.706 200.663 138.655 200.684 138.628C200.706 138.601 200.744 138.574 200.814 138.557C200.963 138.52 201.191 138.541 201.456 138.608C201.713 138.672 201.974 138.77 202.173 138.853C202.272 138.894 202.354 138.931 202.412 138.957C202.44 138.971 202.463 138.981 202.478 138.989L202.494 138.997L202.498 138.999L202.499 138.999" fill="#76716C"/>
<path d="M219.133 147.725H224.138C218.48 142.286 208.471 122.923 220.439 108.999C223.702 105.518 228.62 101.297 256.993 104.43C258.081 104.43 263.086 104.647 261.128 95.7274V96.5976H260.692C260.982 98.3381 261.128 100.731 260.257 102.472C258.516 103.995 259.822 103.995 241.98 102.689C226.096 101.527 221.515 105.083 220.004 106.388C214.781 110.897 205.48 125.399 219.133 147.725Z" fill="#76716C"/>
<path fill-rule="evenodd" clip-rule="evenodd" d="M262.497 92.5277L261.78 93.2441V94.9659L260.91 95.6186V96.3801H260.435L260.478 96.6334C260.765 98.3559 260.897 100.666 260.081 102.337C259.983 102.423 259.895 102.505 259.814 102.58L259.811 102.582C259.721 102.665 259.64 102.739 259.562 102.807C259.404 102.944 259.258 103.05 259.081 103.136C258.725 103.308 258.208 103.41 257.154 103.424C255.275 103.448 251.803 103.193 244.757 102.675C243.892 102.611 242.973 102.544 241.996 102.472C234.037 101.89 228.895 102.488 225.545 103.403C222.188 104.32 220.637 105.554 219.861 106.223C217.217 108.507 213.557 113.302 212.276 120.336C210.994 127.376 212.097 136.636 218.947 147.838L219.011 147.942H224.678L224.288 147.568C221.493 144.88 217.596 138.718 215.891 131.494C214.188 124.278 214.679 116.036 220.601 109.144C221.411 108.28 222.314 107.381 223.651 106.561C224.99 105.74 226.773 104.992 229.345 104.447C234.495 103.355 242.79 103.08 256.969 104.646L256.981 104.647H256.993C257.018 104.647 257.044 104.648 257.073 104.648C257.673 104.651 259.193 104.658 260.351 103.583C261.566 102.455 262.31 100.214 261.37 95.8177L262.215 95.1835V93.4243L262.804 92.8354L262.497 92.5277ZM261.119 96.8152C261.759 100.54 261.025 102.363 260.055 103.264C259.027 104.219 257.664 104.214 257.065 104.212C257.044 104.212 257.024 104.212 257.005 104.212C242.819 102.647 234.472 102.916 229.255 104.021C226.643 104.575 224.811 105.339 223.423 106.19C222.035 107.042 221.1 107.975 220.28 108.85L220.277 108.853L220.274 108.857C214.231 115.888 213.743 124.289 215.467 131.594C217.115 138.577 220.791 144.591 223.612 147.507H219.255C212.509 136.43 211.447 127.313 212.704 120.414C213.966 113.488 217.568 108.778 220.146 106.553C220.882 105.917 222.377 104.72 225.659 103.823C228.948 102.925 234.038 102.327 241.964 102.906C242.946 102.978 243.871 103.046 244.742 103.11C251.767 103.626 255.261 103.883 257.159 103.859C258.227 103.845 258.824 103.743 259.271 103.528C259.495 103.42 259.672 103.287 259.846 103.137C259.93 103.064 260.015 102.986 260.103 102.905L260.109 102.9C260.199 102.816 260.294 102.729 260.4 102.636L260.433 102.607L260.452 102.569C261.313 100.848 261.21 98.5391 260.947 96.8152H261.119Z" fill="#76716C"/>
<path d="M254.165 111.392C263.738 111.827 275.053 102.907 264.609 93.1166C272.442 100.949 265.697 109.667 255.47 109.216C250.538 108.999 239.325 108.955 233.929 110.522C230.593 111.102 223.615 114.96 222.397 125.751C222.469 129.232 225.356 136.02 235.452 136.194C237.265 134.889 242.85 134.236 250.466 137.499C258.734 133.7 272.007 136.194 278.534 147.072C276.141 139.893 264.826 130.537 250.03 134.671C248.29 133.366 240.674 131.408 233.929 133.366C233.929 133.366 228.854 132.495 227.619 130.755C226.023 128.507 224.181 122.401 229.577 115.961C232.406 114.003 233.95 110.473 254.165 111.392Z" fill="#76716C"/>
<path fill-rule="evenodd" clip-rule="evenodd" d="M268.946 100.138C268.68 97.8667 267.394 95.4293 264.758 92.9579L264.455 93.2705C266.388 95.2034 267.408 97.1771 267.709 99.0346C268.009 100.891 267.594 102.647 266.629 104.155C264.695 107.177 260.535 109.222 255.48 108.999C253.009 108.89 248.966 108.825 244.865 108.983C240.776 109.14 236.606 109.52 233.88 110.309C230.449 110.912 223.409 114.847 222.181 125.727L222.179 125.741L222.179 125.756C222.217 127.545 222.974 130.164 225.006 132.36C227.043 134.562 230.348 136.324 235.448 136.411L235.521 136.413L235.579 136.371C236.429 135.759 238.221 135.27 240.776 135.351C243.321 135.431 246.594 136.077 250.38 137.699L250.469 137.737L250.557 137.697C258.73 133.941 271.881 136.406 278.348 147.184L278.741 147.003C276.318 139.735 264.936 130.338 250.073 134.434C249.595 134.103 248.801 133.752 247.795 133.434C246.718 133.093 245.38 132.785 243.886 132.579C240.915 132.17 237.313 132.167 233.917 133.143L233.911 133.141C233.874 133.135 233.82 133.125 233.75 133.111C233.61 133.084 233.409 133.044 233.164 132.99C232.672 132.882 232.005 132.72 231.301 132.505C230.596 132.289 229.858 132.021 229.224 131.703C228.584 131.381 228.074 131.02 227.797 130.629C226.252 128.454 224.424 122.469 229.726 116.123C230.064 115.887 230.38 115.633 230.709 115.371C231.775 114.517 232.964 113.565 235.416 112.805C238.646 111.804 244.055 111.15 254.155 111.609C259 111.829 264.294 109.687 267.064 106.225C268.453 104.488 269.212 102.412 268.946 100.138ZM233.929 133.366L233.892 133.58L233.942 133.589L233.99 133.575C237.325 132.606 240.883 132.605 243.827 133.01C245.298 133.213 246.612 133.516 247.663 133.848C248.721 134.183 249.495 134.541 249.9 134.845L249.986 134.909L250.089 134.881C263.218 131.213 273.564 138.254 277.291 144.843C270.366 135.703 258.263 133.734 250.463 137.262C246.67 135.648 243.375 134.998 240.79 134.916C238.249 134.835 236.367 135.304 235.385 135.975C230.431 135.874 227.264 134.161 225.326 132.065C223.377 129.959 222.654 127.452 222.615 125.761C223.827 115.082 230.722 111.3 233.966 110.736L233.978 110.734L233.99 110.731C236.66 109.955 240.789 109.575 244.882 109.417C248.97 109.26 253 109.325 255.461 109.434C260.632 109.662 264.958 107.573 266.995 104.39C268.015 102.796 268.457 100.933 268.139 98.9651C268.083 98.6204 268.004 98.273 267.901 97.9238C268.229 98.6996 268.428 99.4565 268.513 100.189C268.764 102.327 268.054 104.29 266.724 105.953C264.054 109.29 258.903 111.389 254.175 111.175C244.059 110.715 238.59 111.366 235.287 112.39C232.749 113.176 231.484 114.19 230.41 115.05C230.084 115.312 229.775 115.559 229.454 115.782L229.429 115.798L229.411 115.821C223.943 122.346 225.796 128.563 227.442 130.881C227.782 131.36 228.369 131.76 229.028 132.092C229.693 132.425 230.456 132.702 231.174 132.921C231.892 133.141 232.571 133.305 233.07 133.415C233.32 133.47 233.525 133.511 233.668 133.539C233.739 133.552 233.795 133.563 233.833 133.57C233.852 133.573 233.867 133.576 233.877 133.577L233.888 133.579L233.891 133.58L233.892 133.58L233.892 133.58C233.892 133.58 233.892 133.58 233.929 133.366Z" fill="#76716C"/>
<path d="M71.3687 103.89C129.682 20.3459 257.406 22.9567 314.414 103.89C245.656 32.5295 137.08 32.312 71.3687 103.89Z" fill="#76716C"/>
<path fill-rule="evenodd" clip-rule="evenodd" d="M312.554 101.678C244.413 33.0912 138.827 32.7629 73.4693 101.326C131.953 21.4575 255.469 24.0205 312.554 101.678ZM71.1902 103.765C129.593 20.0939 257.499 22.7118 314.592 103.765L314.257 104.041C245.583 32.7669 137.152 32.5554 71.5289 104.037L71.1902 103.765Z" fill="#76716C"/>
</g>
</svg>
