<svg width="156" height="80" viewBox="0 0 156 80" fill="none" xmlns="http://www.w3.org/2000/svg">
<path fill-rule="evenodd" clip-rule="evenodd" d="M131.778 25.5711C136.382 26.8026 142.827 23.6717 138.796 17.7994C141.767 22.4416 137.563 25.9614 132.644 24.6525C130.271 24.0213 124.83 22.8054 122.042 22.9921C120.36 22.9186 116.561 24.0509 114.82 29.1671C114.485 30.8671 115.164 34.4746 120.049 35.6349C121.069 35.1934 123.85 35.4711 127.202 37.869C131.622 36.9028 137.803 39.5295 139.815 45.5133C139.417 41.768 134.918 36.0145 127.292 36.4477C126.585 35.6276 123.095 33.8644 119.61 34.0976C119.61 34.0976 117.238 33.1339 116.824 32.1561C116.288 30.8932 116.043 27.7284 119.35 25.1726C119.537 25.0957 119.717 25.0062 119.907 24.9125C121.318 24.2133 123.207 23.278 131.778 25.5711ZM24.1019 25.7586C19.4983 26.9902 13.0533 23.8592 17.0835 17.987C14.113 22.6291 18.3173 26.1489 23.2362 24.8401C25.6084 24.2088 31.0498 22.993 33.8375 23.1796C35.5196 23.1062 39.3192 24.2384 41.0599 29.3547C41.3953 31.0547 40.716 34.6622 35.8309 35.8224C34.8113 35.381 32.0294 35.6587 28.678 38.0566C24.2577 37.0903 18.0767 39.7171 16.0645 45.7009C16.4626 41.9556 20.9619 36.2021 28.5883 36.6353C29.2947 35.8152 32.785 34.0519 36.2696 34.2852C36.2696 34.2852 38.6417 33.3214 39.0563 32.3437C39.592 31.0808 39.8366 27.9159 36.5301 25.3602C36.3431 25.2833 36.1625 25.1938 35.9733 25.1001C34.5617 24.4009 32.6733 23.4656 24.1019 25.7586ZM42.3834 40.062L44.8111 39.5039C48.9464 27.1408 42.8184 21.1367 39.7826 19.5294C38.9038 19.0642 36.2855 17.8487 28.7097 20.1842L27.3886 20.5917L27.3886 20.5918L27.3886 20.5918C21.655 22.3613 20.8682 22.6041 20.2798 22.3629C20.1862 22.3245 20.0976 22.2738 19.995 22.2152C19.9411 22.1844 19.8834 22.1513 19.819 22.1167C19.2028 21.3687 19.0065 20.1904 18.9533 19.313L18.7422 19.3615L18.6452 18.9389C18.6883 23.3899 20.9896 22.8512 21.5836 22.7121L21.6205 22.7035C35.0354 18.0183 37.8912 19.5194 39.8624 20.8456C47.2194 26.2721 44.5217 36.7902 42.3834 40.062ZM52.9404 32.9866C53.075 33.4998 50.9788 36.7932 45.9906 39.0908L46.8612 36.5582C47.6817 36.3427 49.3175 35.4742 51.9148 33.2559C51.9148 33.2559 52.8059 32.4733 52.9404 32.9866ZM37.4132 46.6685C50.9429 40.6635 53.9986 35.7204 53.6016 35.1542C53.2708 34.6823 52.0892 35.7307 52.0892 35.7307C47.234 39.8445 41.4536 41.4273 40.829 41.5745C39.335 42.6965 38.8701 44.4556 39.1153 45.4975L37.4132 46.6685ZM29.9275 44.4981C29.9521 44.4968 29.9764 44.4953 30.0004 44.4938C29.972 44.5018 29.9474 44.5034 29.9275 44.4981ZM31.2824 42.4461C31.6294 42.9997 32.2538 44.3462 30.0004 44.4938C30.3276 44.4009 31.161 43.4509 31.2824 42.4461ZM19.0379 46.3495C12.9081 52.7619 20.8028 62.6132 29.2385 55.6655C20.0068 59.373 16.3855 51.2275 19.0379 46.3495ZM29.2385 55.6655C29.0644 55.044 28.194 51.9364 29.1003 50.7883C28.7335 51.785 29.1302 53.6848 30.2029 54.7245L29.2385 55.6655ZM49.8986 72.0737C63.4207 46.109 93.0382 46.9204 106.258 72.0737C90.3136 49.8955 65.1362 49.8279 49.8986 72.0737ZM33.0689 55.9955C33.2957 56.8307 31.9111 61.1588 28.6684 62.3286C29.524 61.8839 32.0373 59.8522 32.5108 54.9523C34.4228 54.9396 37.7417 53.731 38.0547 48.0375C39.2592 48.187 42.0976 47.11 44.1842 44.6083C44.1259 44.6783 44.0598 44.761 43.9848 44.8549C43.3087 45.7019 41.9025 47.4634 38.8149 49.0343C38.7702 49.2719 38.7322 49.5389 38.6913 49.8263C38.3811 52.0053 37.904 55.3566 33.0689 55.9955ZM12.4181 47.8341C-1.80055 56.682 6.0639 68.0184 14.9045 69.4009C26.5519 71.8267 42.7769 62.6758 54.943 55.8142L54.943 55.8141C59.4179 53.2903 63.3437 51.0762 66.2906 49.8617C70.5099 47.608 74.5156 45.9527 78.2293 44.7685C81.7793 45.938 85.5882 47.537 89.5893 49.6742C92.5362 50.8886 96.462 53.1028 100.937 55.6266C113.103 62.4883 129.328 71.6391 140.975 69.2134C149.816 67.8309 157.68 56.4945 143.462 47.6465C153.571 55.4104 151.289 64.3616 142.357 66.7249C134.854 68.7101 122.632 65.6731 109.389 57.0474C103.462 53.5704 92.8305 47.3985 81.4565 43.8354C90.6017 41.4651 97.6342 41.9978 101.193 43.2258C94.2883 40.4407 86.2253 40.919 78.3023 42.9225C70.1476 40.7637 61.8021 40.1681 54.6872 43.0382C58.33 41.7811 65.6135 41.2527 75.0772 43.8213C63.458 47.3489 52.5312 53.6915 46.4913 57.235C33.2482 65.8607 21.0262 68.8977 13.5232 66.9124C4.59123 64.5492 2.30837 55.598 12.4181 47.8341ZM126.641 55.4779C135.077 62.4256 142.972 52.5743 136.842 46.1619C139.494 51.04 135.873 59.1854 126.641 55.4779ZM126.641 55.4779C126.815 54.8564 127.686 51.7489 126.78 50.6007C127.146 51.5975 126.75 53.4972 125.677 54.537L126.641 55.4779ZM125.952 44.3105C125.928 44.3092 125.903 44.3078 125.879 44.3062C125.908 44.3142 125.932 44.3159 125.952 44.3105ZM124.597 42.2585C124.251 42.8121 123.626 44.1586 125.879 44.3062C125.552 44.2133 124.719 43.2633 124.597 42.2585ZM122.811 55.8079C122.584 56.6432 123.969 60.9712 127.211 62.141C126.356 61.6963 123.843 59.6646 123.369 54.7648C121.457 54.752 118.138 53.5434 117.825 47.8499C116.621 47.9995 113.782 46.9224 111.696 44.4207C111.754 44.4907 111.82 44.5734 111.895 44.6674C112.571 45.5144 113.977 47.2758 117.065 48.8467C117.11 49.0844 117.148 49.3513 117.189 49.6387C117.499 51.8177 117.976 55.169 122.811 55.8079ZM118.467 46.481C104.937 40.476 101.881 35.5328 102.278 34.9666C102.609 34.4948 103.791 35.5431 103.791 35.5431C108.646 39.6569 114.426 41.2397 115.051 41.3869C116.545 42.5089 117.01 44.268 116.765 45.3099L118.467 46.481ZM102.939 32.799C102.805 33.3122 104.901 36.6056 109.889 38.9033L109.019 36.3706C108.198 36.1551 106.562 35.2866 103.965 33.0684C103.965 33.0684 103.074 32.2858 102.939 32.799ZM113.496 39.8744L111.069 39.3164C106.933 26.9532 113.061 20.9492 116.097 19.3419C116.976 18.8766 119.594 17.6611 127.17 19.9966L128.491 20.4041L128.491 20.4042C134.225 22.1737 135.012 22.4166 135.6 22.1753C135.694 22.1369 135.782 22.0863 135.885 22.0276C135.939 21.9968 135.996 21.9638 136.061 21.9292C136.677 21.1811 136.873 20.0029 136.927 19.1254L137.138 19.1739L137.235 18.7514C137.192 23.2024 134.89 22.6636 134.296 22.5245L134.259 22.516C120.844 17.8307 117.989 19.3318 116.017 20.6581C108.66 26.0845 111.358 36.6026 113.496 39.8744Z" fill="#76716C" fill-opacity="0.22"/>
</svg>
