<?xml version="1.0" ?><svg enable-background="new 0 0 64 64" height="64px" version="1.1" viewBox="0 0 64 64" width="64px" xml:space="preserve" xmlns="http://www.w3.org/2000/svg" xmlns:xlink="http://www.w3.org/1999/xlink"><g id="_x31_-Call"/><g id="_x32_-24_Hours_Call"/><g id="_x33_-Sending_Call"/><g id="_x34_-Incoming_Call"/><g id="_x35_-Talk_On_Phone"/><g id="_x36_-Block_Call"/><g id="_x37_-Hold_Call"/><g id="_x38_-Mute_Call"/><g id="_x39_-Phone_Book"/><g id="_x31_0-Add_Contact"><g><path d="M10.1533203,26.4255371h6.3339844c0.5527344,0,1-0.4477539,1-1v-4c0-0.5522461-0.4472656-1-1-1h-6.3339844    c-0.5527344,0-1,0.4477539-1,1v4C9.1533203,25.9777832,9.6005859,26.4255371,10.1533203,26.4255371z"/><path d="M10.1533203,35.4255371h6.3339844c0.5527344,0,1-0.4477539,1-1v-4c0-0.5522461-0.4472656-1-1-1h-6.3339844    c-0.5527344,0-1,0.4477539-1,1v4C9.1533203,34.9777832,9.6005859,35.4255371,10.1533203,35.4255371z"/><path d="M17.4873047,43.4255371v-4c0-0.5522461-0.4472656-1-1-1h-6.3339844c-0.5527344,0-1,0.4477539-1,1v4    c0,0.5522461,0.4472656,1,1,1h6.3339844C17.0400391,44.4255371,17.4873047,43.9777832,17.4873047,43.4255371z"/><path d="M33.6123047,31.4255371c2.2060547,0,4-1.7944336,4-4s-1.7939453-4-4-4s-4,1.7944336-4,4    S31.40625,31.4255371,33.6123047,31.4255371z"/><path d="M33.6123047,33.4255371c-4.625,0-8.4453125,3.5063477-8.9443359,8h17.8886719    C42.0576172,36.9318848,38.2373047,33.4255371,33.6123047,33.4255371z"/><path d="M38.8466797,15.5744629c0-2.378418,0.934021-4.538147,2.446228-6.1489258h-23.430603c-2.7568359,0-5,2.2431641-5,5v4    h3.625c1.6542969,0,3,1.3457031,3,3v4c0,1.0436401-0.5369263,1.9624023-1.3477173,2.5    c0.810791,0.5375977,1.3477173,1.4563599,1.3477173,2.5v4c0,1.0436401-0.5369263,1.9624023-1.3477173,2.5    c0.810791,0.5375977,1.3477173,1.4563599,1.3477173,2.5v4c0,1.6542969-1.3457031,3-3,3h-3.625v4c0,2.7568359,2.2431641,5,5,5    h31.25c2.7568359,0,5-2.2431641,5-5V22.0221558c-1.6218262,1.576416-3.8305054,2.5523071-6.265625,2.5523071    C42.8837891,24.5744629,38.8466797,20.5368652,38.8466797,15.5744629z M43.6123047,43.4255371h-20c-0.5527344,0-1-0.4477539-1-1    c0-4.7456665,3.0265503-8.7870483,7.2462769-10.3262939c-1.3676758-1.100647-2.2462769-2.7854614-2.2462769-4.6737061    c0-3.3085938,2.6914063-6,6-6s6,2.6914063,6,6c0,1.8882446-0.8786011,3.5730591-2.2462769,4.6737061    c4.2197266,1.5392456,7.2462769,5.5806274,7.2462769,10.3262939    C44.6123047,42.9777832,44.1650391,43.4255371,43.6123047,43.4255371z"/><path d="M47.8466797,22.5744629c3.859375,0,7-3.1401367,7-7s-3.140625-7-7-7s-7,3.1401367-7,7    S43.9873047,22.5744629,47.8466797,22.5744629z M45.1982422,14.5744629h1.6484375v-1.6489258c0-0.5522461,0.4472656-1,1-1    s1,0.4477539,1,1v1.6489258h1.6494141c0.5527344,0,1,0.4477539,1,1s-0.4472656,1-1,1h-1.6494141v1.6489258    c0,0.5522461-0.4472656,1-1,1s-1-0.4477539-1-1v-1.6489258h-1.6484375c-0.5527344,0-1-0.4477539-1-1    S44.6455078,14.5744629,45.1982422,14.5744629z"/></g></g><g id="_x31_1-Delete_Contact"/><g id="_x31_2-Mail"/><g id="_x31_3-Message_Read"/><g id="_x31_4-Email"/><g id="_x31_5-Send_Mail"/><g id="_x31_6-Important_Mail"/><g id="_x31_7-Mail_Chain"/><g id="_x31_8-Messaging"/><g id="_x31_9-Sending"/><g id="_x32_0-Chat"/><g id="_x32_1-Mail_Attachment"/><g id="_x32_2-Mobile_Link"/><g id="_x32_3-Smartphone"/><g id="_x32_4-Social_Media"/><g id="_x32_5-Support"/><g id="_x32_6-Links"/><g id="_x32_7-Phone"/><g id="_x32_8-Phone-2"/><g id="_x32_9-Map"/><g id="_x33_0-Location"/><g id="_x33_1-Write"/><g id="_x33_2-World"/><g id="_x33_3-Home"/><g id="_x33_4-Calendar"/><g id="_x33_5-Website"/><g id="_x33_6-Info"/><g id="_x33_7-Bull_Horn"/><g id="_x33_8-Profile"/><g id="_x33_9-Quote__x26__Answer"/><g id="_x34_0-Notification"/><g id="_x34_1-Share"/><g id="_x34_2-Time"/></svg>