<svg width="24" height="24" viewBox="0 0 24 24" fill="none" xmlns="http://www.w3.org/2000/svg">
<g clip-path="url(#clip0_18_131)">
<path d="M12 0C5.3835 0 0 4.71 0 10.5C0 16.29 5.3835 21 12 21C12.3255 21 12.66 20.9875 13 20.9615V23.5C13.0001 23.5868 13.0227 23.6721 13.0658 23.7475C13.1088 23.8229 13.1707 23.8858 13.2454 23.93C13.3202 23.9742 13.4051 23.9982 13.4919 23.9996C13.5787 24.001 13.6644 23.9798 13.7405 23.938C14.1595 23.708 24 18.207 24 10.5C24 4.71 18.6165 0 12 0ZM14 22.616V20.4125C14 20.2799 13.9473 20.1527 13.8536 20.0589C13.7598 19.9652 13.6326 19.9125 13.5 19.9125C13.4813 19.9124 13.4626 19.9134 13.444 19.9155C12.9646 19.9707 12.4825 19.9989 12 20C5.9345 20 1 15.7385 1 10.5C1 5.2615 5.9345 1 12 1C18.0655 1 23 5.2615 23 10.5C23 16.441 16.275 21.1825 14 22.616Z" fill="#D9BD88"/>
<path d="M19 8.5C19.1326 8.5 19.2598 8.44732 19.3536 8.35355C19.4473 8.25979 19.5 8.13261 19.5 8C19.5 7.86739 19.4473 7.74021 19.3536 7.64645C19.2598 7.55268 19.1326 7.5 19 7.5H16.5C16.3674 7.5 16.2402 7.55268 16.1464 7.64645C16.0527 7.74021 16 7.86739 16 8V13C16 13.1326 16.0527 13.2598 16.1464 13.3536C16.2402 13.4473 16.3674 13.5 16.5 13.5H19C19.1326 13.5 19.2598 13.4473 19.3536 13.3536C19.4473 13.2598 19.5 13.1326 19.5 13C19.5 12.8674 19.4473 12.7402 19.3536 12.6464C19.2598 12.5527 19.1326 12.5 19 12.5H17V11H19C19.1326 11 19.2598 10.9473 19.3536 10.8536C19.4473 10.7598 19.5 10.6326 19.5 10.5C19.5 10.3674 19.4473 10.2402 19.3536 10.1464C19.2598 10.0527 19.1326 10 19 10H17V8.5H19ZM7.5 12.5H5.5V8C5.5 7.86739 5.44732 7.74021 5.35355 7.64645C5.25979 7.55268 5.13261 7.5 5 7.5C4.86739 7.5 4.74021 7.55268 4.64645 7.64645C4.55268 7.74021 4.5 7.86739 4.5 8V13C4.5 13.1326 4.55268 13.2598 4.64645 13.3536C4.74021 13.4473 4.86739 13.5 5 13.5H7.5C7.63261 13.5 7.75979 13.4473 7.85355 13.3536C7.94732 13.2598 8 13.1326 8 13C8 12.8674 7.94732 12.7402 7.85355 12.6464C7.75979 12.5527 7.63261 12.5 7.5 12.5ZM9.5 7.5C9.36739 7.5 9.24021 7.55268 9.14645 7.64645C9.05268 7.74021 9 7.86739 9 8V13C9 13.1326 9.05268 13.2598 9.14645 13.3536C9.24021 13.4473 9.36739 13.5 9.5 13.5C9.63261 13.5 9.75979 13.4473 9.85355 13.3536C9.94732 13.2598 10 13.1326 10 13V8C10 7.86739 9.94732 7.74021 9.85355 7.64645C9.75979 7.55268 9.63261 7.5 9.5 7.5ZM14.5 7.5C14.3674 7.5 14.2402 7.55268 14.1464 7.64645C14.0527 7.74021 14 7.86739 14 8V11.195L11.9285 7.745C11.8723 7.65152 11.7871 7.57898 11.6858 7.53845C11.5845 7.49791 11.4728 7.49161 11.3676 7.5205C11.2624 7.54939 11.1695 7.61188 11.1032 7.69845C11.0368 7.78502 11.0006 7.89092 11 8V13C11 13.1326 11.0527 13.2598 11.1464 13.3536C11.2402 13.4473 11.3674 13.5 11.5 13.5C11.6326 13.5 11.7598 13.4473 11.8536 13.3536C11.9473 13.2598 12 13.1326 12 13V9.805L14.0715 13.255C14.1277 13.3485 14.2129 13.421 14.3142 13.4616C14.4155 13.5021 14.5272 13.5084 14.6324 13.4795C14.7376 13.4506 14.8305 13.3881 14.8968 13.3015C14.9632 13.215 14.9994 13.1091 15 13V8C15 7.86739 14.9473 7.74021 14.8536 7.64645C14.7598 7.55268 14.6326 7.5 14.5 7.5Z" fill="#D9BD88"/>
</g>
<defs>
<clipPath id="clip0_18_131">
<rect width="24" height="24" fill="white"/>
</clipPath>
</defs>
</svg>
