<?xml version="1.0" encoding="UTF-8" standalone="no"?>
<svg
   width="64pt"
   height="64pt"
   viewBox="0 0 22.577778 22.577778"
   version="1.1"
   id="svg831"
   inkscape:version="1.1.2 (1:1.1+202202050950+0a00cf5339)"
   sodipodi:docname="26 - Customer.svg"
   inkscape:export-filename="/media/taufikramadhan/Data/Tr Design Studio/Project Design/TR Creative Design/Icon Design/Project Hiring/Icon Icons/019 - Commerce And Shopping/5 - Send/26 - Customer.png"
   inkscape:export-xdpi="576"
   inkscape:export-ydpi="576"
   xmlns:inkscape="http://www.inkscape.org/namespaces/inkscape"
   xmlns:sodipodi="http://sodipodi.sourceforge.net/DTD/sodipodi-0.dtd"
   xmlns="http://www.w3.org/2000/svg"
   xmlns:svg="http://www.w3.org/2000/svg"
   xmlns:rdf="http://www.w3.org/1999/02/22-rdf-syntax-ns#"
   xmlns:cc="http://creativecommons.org/ns#"
   xmlns:dc="http://purl.org/dc/elements/1.1/">
  <defs
     id="defs825">
    <pattern
       id="EMFhbasepattern"
       patternUnits="userSpaceOnUse"
       width="6"
       height="6"
       x="0"
       y="0" />
    <pattern
       id="EMFhbasepattern-9"
       patternUnits="userSpaceOnUse"
       width="6"
       height="6"
       x="0"
       y="0" />
    <pattern
       id="EMFhbasepattern-0"
       patternUnits="userSpaceOnUse"
       width="6"
       height="6"
       x="0"
       y="0" />
    <pattern
       id="EMFhbasepattern-7"
       patternUnits="userSpaceOnUse"
       width="6"
       height="6"
       x="0"
       y="0" />
    <pattern
       id="EMFhbasepattern-2"
       patternUnits="userSpaceOnUse"
       width="6"
       height="6"
       x="0"
       y="0" />
    <pattern
       id="EMFhbasepattern-98"
       patternUnits="userSpaceOnUse"
       width="6"
       height="6"
       x="0"
       y="0" />
    <pattern
       id="EMFhbasepattern-6"
       patternUnits="userSpaceOnUse"
       width="6"
       height="6"
       x="0"
       y="0" />
    <pattern
       id="EMFhbasepattern-01"
       patternUnits="userSpaceOnUse"
       width="6"
       height="6"
       x="0"
       y="0" />
    <pattern
       id="EMFhbasepattern-07"
       patternUnits="userSpaceOnUse"
       width="6"
       height="6"
       x="0"
       y="0" />
    <pattern
       id="EMFhbasepattern-8"
       patternUnits="userSpaceOnUse"
       width="6"
       height="6"
       x="0"
       y="0" />
    <pattern
       id="EMFhbasepattern-4"
       patternUnits="userSpaceOnUse"
       width="6"
       height="6"
       x="0"
       y="0" />
    <pattern
       id="EMFhbasepattern-40"
       patternUnits="userSpaceOnUse"
       width="6"
       height="6"
       x="0"
       y="0" />
    <pattern
       id="EMFhbasepattern-08"
       patternUnits="userSpaceOnUse"
       width="6"
       height="6"
       x="0"
       y="0" />
    <pattern
       id="EMFhbasepattern-04"
       patternUnits="userSpaceOnUse"
       width="6"
       height="6"
       x="0"
       y="0" />
    <pattern
       id="EMFhbasepattern-014"
       patternUnits="userSpaceOnUse"
       width="6"
       height="6"
       x="0"
       y="0" />
    <pattern
       id="EMFhbasepattern-27"
       patternUnits="userSpaceOnUse"
       width="6"
       height="6"
       x="0"
       y="0" />
    <pattern
       id="EMFhbasepattern-09"
       patternUnits="userSpaceOnUse"
       width="6"
       height="6"
       x="0"
       y="0" />
    <pattern
       id="EMFhbasepattern-5"
       patternUnits="userSpaceOnUse"
       width="6"
       height="6"
       x="0"
       y="0" />
    <pattern
       id="EMFhbasepattern-018"
       patternUnits="userSpaceOnUse"
       width="6"
       height="6"
       x="0"
       y="0" />
  </defs>
  <sodipodi:namedview
     id="base"
     pagecolor="#ffffff"
     bordercolor="#666666"
     borderopacity="1.0"
     inkscape:pageopacity="0.0"
     inkscape:pageshadow="2"
     inkscape:zoom="4.4249417"
     inkscape:cx="41.243481"
     inkscape:cy="44.746352"
     inkscape:document-units="pt"
     inkscape:current-layer="layer1"
     showgrid="false"
     units="pt"
     inkscape:window-width="1366"
     inkscape:window-height="705"
     inkscape:window-x="0"
     inkscape:window-y="31"
     inkscape:window-maximized="1"
     inkscape:pagecheckerboard="true"
     inkscape:showpageshadow="false"
     inkscape:object-paths="true"
     inkscape:snap-intersection-paths="true"
     inkscape:snap-smooth-nodes="true"
     inkscape:snap-midpoints="true"
     showguides="false"
     inkscape:snap-bbox="true"
     inkscape:bbox-nodes="true"
     inkscape:snap-nodes="false"
     inkscape:snap-global="true"
     inkscape:document-rotation="0">
    <inkscape:grid
       type="xygrid"
       id="grid1378" />
    <sodipodi:guide
       position="0.97013831,21.607643"
       orientation="78.000048,0"
       id="guide1380"
       inkscape:locked="false" />
    <sodipodi:guide
       position="0.97013831,0.97013129"
       orientation="0,78.000005"
       id="guide1382"
       inkscape:locked="false" />
    <sodipodi:guide
       position="21.607639,0.97013129"
       orientation="-78.000048,0"
       id="guide1384"
       inkscape:locked="false" />
    <sodipodi:guide
       position="21.607639,21.607643"
       orientation="0,-78.000005"
       id="guide1386"
       inkscape:locked="false" />
  </sodipodi:namedview>
  <metadata
     id="metadata828">
    <rdf:RDF>
      <cc:Work
         rdf:about="">
        <dc:format>image/svg+xml</dc:format>
        <dc:type
           rdf:resource="http://purl.org/dc/dcmitype/StillImage" />
      </cc:Work>
    </rdf:RDF>
  </metadata>
  <g
     inkscape:label="Icon"
     inkscape:groupmode="layer"
     id="layer1"
     transform="translate(0,-274.42223)">
    <path
       id="path15991"
       style="color:#000000;display:inline;fill:#000000;stroke-width:1;stroke-linecap:round;stroke-linejoin:round;stroke-miterlimit:1.5;-inkscape-stroke:none"
       d="m 6.9996623,275.40771 c -0.7836067,0.0523 -1.7583127,0.41298 -2.680405,1.48875 -0.00166,0.001 -0.00356,0.004 -0.0052,0.005 0,0 -0.3859338,0.46886 -0.533093,1.2014 -0.099537,0.49549 -0.085348,1.12528 0.2008856,1.81121 -0.4395204,0.21859 -0.7411249,0.67324 -0.7411249,1.19361 0,0.73137 0.6000436,1.33206 1.3314259,1.33206 0.1354427,0 0.2713479,-0.0179 0.4024168,-0.0546 l 0.3003497,0.83604 c 0.1013653,0.16895 0.2861934,0.43568 0.5935524,0.67677 l -0.2437901,1.18384 -1.767651,0.25225 c -0.2757982,0.0394 -0.5365813,0.15296 -0.7541296,0.327 l -1.140293,0.91405 c -0.2299207,0.18393 -0.3895286,0.4433 -0.447276,0.73203 l -0.53308961,2.67066 c -0.0507707,0.25387 0.0623812,0.50485 0.26069321,0.6462 v 4.07424 c 6.7e-6,0.54754 0.452322,0.99988 0.9998709,0.99988 H 3.57228 c 6.657e-4,0.18382 0.1503312,0.33226 0.334158,0.33156 h 7.322195 c 0.183827,6.6e-4 0.333423,-0.14774 0.334156,-0.33156 h 1.329476 c 0.547546,0 0.999863,-0.45234 0.99987,-0.99988 v -4.07424 c 0.198315,-0.14135 0.311464,-0.39233 0.260693,-0.6462 l -0.535691,-2.67066 c -0.05774,-0.28873 -0.215403,-0.5481 -0.445325,-0.73203 l -1.139643,-0.91405 c -0.217549,-0.17404 -0.47898,-0.2876 -0.754777,-0.327 l -1.7670011,-0.25221 -0.2437906,-1.18384 c 0.3073594,-0.24109 0.4921843,-0.50782 0.5935497,-0.67677 l 0.295152,-0.83474 c 0.129287,0.036 0.264004,0.0533 0.397866,0.0533 0.731382,0 1.331427,-0.60069 1.331427,-1.33207 0,-0.46411 -0.228758,-0.89429 -0.601352,-1.13379 0.315102,-0.69001 0.274019,-1.38955 0.131972,-1.88533 -0.178383,-0.62259 -0.599324,-1.08131 -1.034325,-1.36132 -0.208094,-0.13396 -0.4208064,-0.22966 -0.6280081,-0.28086 0.00302,-0.005 0.00604,-0.0101 0.00906,-0.0143 0.1397016,-0.22137 0.3116821,-0.37382 0.4687301,-0.37382 0.182936,-6.6e-4 0.331576,-0.14862 0.332206,-0.33155 7.33e-4,-0.1839 -0.148307,-0.33353 -0.332206,-0.33416 -0.493438,0 -0.8188062,0.35469 -1.0141723,0.65531 -0.2007493,-0.23572 -0.4590312,-0.40099 -0.7326751,-0.49798 -0.5254343,-0.16863 -0.9744452,-0.166 -1.4842061,-0.14236 z m 9.0813907,0.68522 c -0.38105,0.22002 -0.712359,0.56097 -0.88285,1.01872 -0.738745,0.0926 -1.366508,0.58517 -1.814457,1.19751 -0.493717,0.67491 -0.793785,1.51468 -0.793785,2.29294 2.57e-4,0.62714 0.173721,1.23392 0.552593,1.72929 l -0.189181,2.05175 c -0.02376,0.247 0.221342,0.43223 0.452476,0.34194 l 1.129242,-0.43621 c 0.25485,0.057 0.928884,0.18475 1.701339,0.14107 0.921648,-0.0521 2.039847,-0.36496 2.697958,-1.36849 0.684777,0.0848 1.331653,-0.22623 1.805355,-0.67611 0.517747,-0.49171 0.867898,-1.16064 0.867898,-1.82551 0,-0.78278 -0.0579,-1.45533 -0.332207,-2.01469 -0.251099,-0.51201 -0.706637,-0.89325 -1.35938,-1.08633 -0.0844,-0.4044 -0.356036,-0.77259 -0.714471,-1.07334 -0.434807,-0.36483 -1.020525,-0.63122 -1.677935,-0.65856 -0.48283,0 -0.996573,0.10845 -1.442595,0.36602 z m -7.820827,0.0839 c 0.3292052,0.11675 0.5416291,0.29041 0.6488103,0.69041 h 0.00126 c 0.00566,0.022 0.013448,0.0433 0.0234,0.0638 0.082691,0.16433 0.2830201,0.23044 0.4472761,0.14756 -0.00742,0.004 0.072463,-0.0187 0.1963323,0.0101 0.1238666,0.0283 0.2853537,0.0964 0.4446753,0.19894 0.318644,0.20513 0.626921,0.54579 0.752179,0.98296 0.15615,0.54502 0.206749,1.33305 -0.546743,2.06476 -0.2589212,-0.25387 -0.6871669,-0.79672 -0.6871669,-1.61292 h -6.655e-4 c 3.27e-5,-0.042 -0.00793,-0.0838 -0.0234,-0.12291 -0.067821,-0.17131 -0.2618837,-0.25493 -0.4329734,-0.18659 -0.6260725,0.24999 -1.259385,0.36144 -1.9275773,0.2919 0.4647232,-0.16727 0.9628568,-0.39597 1.3132235,-0.74632 0.1290447,-0.12983 0.1290447,-0.33956 0,-0.46939 -0.1301066,-0.13068 -0.3412246,-0.13068 -0.4713311,0 -0.2529667,0.25297 -0.8106459,0.5088 -1.2950193,0.66832 -0.484372,0.15951 -0.8867506,0.23859 -0.8867506,0.23859 v 6.7e-4 c -0.1110573,0.0215 -0.2036119,0.0979 -0.2457416,0.20283 -0.015278,0.0391 -0.023001,0.0809 -0.022767,0.12291 h -0.002 c 0,0.76614 -0.3731322,1.2653 -0.6306066,1.51866 -0.5585266,-0.81129 -0.5838902,-1.49254 -0.4804317,-2.00755 0.1140162,-0.56757 0.387648,-0.89798 0.3907168,-0.9017 0.8225817,-0.95968 1.5918502,-1.21613 2.2188264,-1.25796 0.4003127,-0.0399 0.8482844,0.0215 1.2164335,0.10341 z m 10.514234,0.71707 c 0.328998,0.27605 0.503835,0.61818 0.503835,0.82824 9.2e-5,0.17319 0.132959,0.31736 0.305552,0.33156 l -0.0013,0.005 c 0.613176,0.1404 0.902833,0.38477 1.096085,0.77883 0.193254,0.39407 0.262645,0.97595 0.262645,1.72214 0,0.41484 -0.260029,0.96149 -0.660511,1.34183 -0.400139,0.38002 -0.902775,0.59002 -1.387336,0.47783 -0.155585,-0.0635 -0.337368,-6.7e-4 -0.418672,0.15082 -0.492829,0.91401 -1.412238,1.18772 -2.275386,1.23652 -0.863148,0.0488 -1.601871,-0.14498 -1.601871,-0.14498 l -0.0033,0.0126 c -0.07264,-0.0241 -0.151395,-0.0225 -0.222987,0.005 l -0.70537,0.27304 0.152775,-1.65647 c 0.0093,-0.10505 -0.03169,-0.20825 -0.110518,-0.27826 -0.317727,-0.38808 -0.452271,-0.87337 -0.452477,-1.37497 0,-0.59921 0.254538,-1.33755 0.665713,-1.89963 0.410853,-0.56163 0.954643,-0.93397 1.512157,-0.94071 0.161083,0.008 0.304624,-0.1009 0.340657,-0.25809 0.08787,-0.38939 0.318414,-0.65027 0.639059,-0.8354 0.317788,-0.1835 0.725136,-0.27305 1.09349,-0.27305 0.480356,0.0216 0.940037,0.2237 1.26772,0.49864 z m -0.388779,1.94114 H 16.14215 l -0.0143,-0.0858 c -0.02703,-0.16052 -0.166184,-0.27793 -0.328956,-0.2776 l -0.575334,8e-5 c -0.183831,6.7e-4 -0.332274,0.15033 -0.331556,0.33415 6.99e-4,0.18282 0.148738,0.33085 0.331556,0.33157 h 0.295151 l 0.01495,0.0884 c 0.0011,0.006 0.0024,0.0113 0.0039,0.0176 l 0.187232,1.42505 c 0.02168,0.16664 0.164157,0.29101 0.332205,0.28994 h 1.955533 c 0.151974,-3.3e-4 0.284394,-0.10366 0.321804,-0.25094 l 0.373813,-1.4569 c 0.05659,-0.21116 -0.05547,-0.41549 -0.322467,-0.41549 z m -9.4740443,0.34403 c 0.1767735,1.08902 0.9409851,1.72647 1.0993373,1.84826 0.01825,0.014 0.02861,0.0215 0.02861,0.0215 0.121728,0.0852 0.285125,0.0793 0.400467,-0.0143 0.196188,-0.1584 0.360066,-0.3244 0.496035,-0.49538 0.176694,0.11209 0.282797,0.31293 0.282797,0.56885 0,0.37161 -0.294104,0.6657 -0.665713,0.6657 -0.138401,0 -0.318555,-0.0542 -0.405669,-0.11246 -0.1532923,-0.10203 -0.3605733,-0.0605 -0.462228,0.093 -0.012203,0.0185 -0.022443,0.0375 -0.030558,0.0572 l -0.00126,-6.7e-4 c -0.1042286,0.32738 -0.232516,0.66709 -0.3757628,1.08113 -0.2025419,0.33847 -0.5113795,0.8796 -1.7104402,0.8796 -1.1962507,0 -1.5046065,-0.53838 -1.70719,-0.877 -0.1607305,-0.40039 -0.2824227,-0.73846 -0.3835679,-1.07659 l -0.034484,-0.0636 c -0.088543,-0.15353 -0.3082882,-0.19499 -0.4615787,-0.093 -0.085221,0.0571 -0.26987,0.11247 -0.4082685,0.11247 -0.3716076,0 -0.6657128,-0.29411 -0.6657128,-0.66572 0,-0.26985 0.157238,-0.49857 0.3835637,-0.60396 0.089365,0.14062 0.1914125,0.28183 0.3068537,0.42453 0.1079084,0.13385 0.297657,0.16194 0.4391543,0.0712 0,0 0.8824228,-0.61425 1.1380339,-1.82194 0.9546474,0.28952 1.8739339,0.26337 2.7376225,0.001 z m 7.3293433,0.32178 h 1.717591 l -0.204133,0.79118 h -1.407489 z m 0.0026,1.88467 c -0.183834,-6.7e-4 -0.333441,0.14772 -0.334157,0.33156 -7.32e-4,0.18484 0.149309,0.33487 0.334157,0.33414 h 0.169679 c 0.184847,6.7e-4 0.334878,-0.1493 0.334156,-0.33414 -7.32e-4,-0.18384 -0.150323,-0.33229 -0.334156,-0.33156 z m 1.427643,0 c -0.182819,6.5e-4 -0.330846,0.14874 -0.331557,0.33156 -7.32e-4,0.18382 0.147724,0.33343 0.331557,0.33414 h 0.171628 c 0.184087,-3.2e-4 0.332925,-0.15007 0.332207,-0.33414 -7e-4,-0.18307 -0.149134,-0.33121 -0.332207,-0.33156 z m -11.4425792,4.06187 0.2496424,-1.2014 c 0.2966993,0.11586 0.6558195,0.19112 1.088934,0.19112 0.4335006,0 0.7927339,-0.0757 1.0895861,-0.19178 l -1.38e-5,2e-5 0.249643,1.20205 c 0.00554,0.0272 0.00528,0.0618 -0.00717,0.0981 0,0.0277 -0.1518933,0.29787 -0.4401254,0.49603 -0.2882334,0.19816 -0.6700473,0.33676 -0.8919518,0.33676 -0.2219019,0 -0.6056677,-0.1386 -0.8939011,-0.33676 -0.2882333,-0.19816 -0.4375242,-0.4683 -0.4375242,-0.49603 -0.012958,-0.0327 -0.012782,-0.0654 -0.00715,-0.0981 z m -0.6338672,0.31076 c 0.08644,0.3569 0.3844053,0.61307 0.7021198,0.83149 0.3774785,0.25953 0.8265066,0.45248 1.270315,0.45248 0.4438102,0 0.8928375,-0.19295 1.2703162,-0.45248 0.3177143,-0.21842 0.6163315,-0.47459 0.7027689,-0.83149 l 1.6441295,0.23469 c 0.07002,0.0101 0.137438,0.0296 0.202184,0.0559 l -0.195032,0.38876 c -0.08249,0.16485 -0.015,0.36543 0.150175,0.44728 0.164851,0.0825 0.36543,0.0151 0.447276,-0.15019 l 0.147574,-0.2958 0.820439,0.65467 c 0.107726,0.0862 0.181629,0.20862 0.208685,0.3439 l 0.528541,2.64141 -1.931478,0.20544 v -1.29372 c 7.32e-4,-0.18487 -0.149298,-0.33489 -0.334157,-0.33416 -0.183899,6.6e-4 -0.332285,0.15026 -0.331556,0.33416 v 0.90365 L 10.788508,289.794 c -0.135161,-0.12379 -0.345024,-0.11511 -0.46938,0.0195 -0.124407,0.13451 -0.116369,0.34434 0.01755,0.46937 l 0.560395,0.51945 v 4.56183 H 4.2379904 v -4.56249 l 0.5603938,-0.51879 c 0.1339248,-0.12505 0.1413175,-0.33486 0.016909,-0.46937 -0.1243547,-0.13463 -0.3342179,-0.14328 -0.4693775,-0.0195 l -0.1079185,0.10014 v -0.90365 c 6.657e-4,-0.1839 -0.1476585,-0.33353 -0.331555,-0.33416 -0.1848618,-6.7e-4 -0.3348902,0.14929 -0.3341579,0.33416 v 1.29372 l -1.9314763,-0.20544 0.5285395,-2.64141 c 0.027062,-0.13528 0.1009652,-0.25771 0.2086843,-0.3439 l 0.820438,-0.65467 0.1475753,0.2958 c 0.081849,0.16517 0.2824253,0.23268 0.4472759,0.15019 0.1651734,-0.0819 0.2326633,-0.28243 0.1501748,-0.44728 l -0.1950306,-0.38942 c 0.0646,-0.0263 0.1323337,-0.0453 0.2021837,-0.0552 z m -3.6861258,5.01821 1.6636332,0.17747 v 4.0788 H 2.2428054 c -0.1877744,0 -0.3341546,-0.14639 -0.3341579,-0.33415 z m 11.3177712,0 v 3.92212 c -2e-6,0.18776 -0.146384,0.33415 -0.334157,0.33415 H 11.56279 v -4.0788 z"
       sodipodi:nodetypes="cccscsscccccccccccsccccscccccccccccsscssccccccccscscccccccssscscscccccccscccccccccsccccccscccscccsssccscccccccsccscscccccscccccccccccscccsscscccsccccssccccccccccccccsccccccsccccsccccsssccccsscccccccccccccccccccccccccccccccccccccccccccsccccscccc" />
  </g>
</svg>
