<svg width="32" height="40" viewBox="0 0 32 40" fill="none" xmlns="http://www.w3.org/2000/svg">
<path fill-rule="evenodd" clip-rule="evenodd" d="M7.99122 2.30092C7.99122 1.98533 8.24706 1.72949 8.56265 1.72949H13.1462C13.4618 1.72949 13.7177 1.98533 13.7177 2.30092V12.0023C13.7177 12.3179 13.4618 12.5737 13.1462 12.5737C12.8306 12.5737 12.5748 12.3179 12.5748 12.0023V2.87235H9.13408V13.7227C9.13408 13.859 9.08542 13.9907 8.99688 14.0942L5.71767 17.9276V36C5.71767 36.0188 5.71766 36.0374 5.71766 36.0556C5.71758 36.2856 5.71751 36.4726 5.73026 36.6391C5.74403 36.819 5.77018 36.9253 5.7992 36.989C5.82104 37.0369 5.84216 37.0581 5.87983 37.0777C5.93177 37.1047 6.0483 37.1429 6.28571 37.1429H12C12.3156 37.1429 12.5714 37.3987 12.5714 37.7143C12.5714 38.0299 12.3156 38.2857 12 38.2857H6.28571C5.94079 38.2857 5.62371 38.2326 5.35281 38.0918C5.06764 37.9436 4.87668 37.7206 4.75924 37.4629C4.64898 37.2209 4.60863 36.9601 4.59074 36.7264C4.57444 36.5135 4.57461 36.282 4.57478 36.0643C4.57479 36.0427 4.57481 36.0213 4.57481 36V17.7165C4.57481 17.5803 4.62347 17.4486 4.71201 17.3451L7.99122 13.5117V2.30092Z" fill="#BC7C00" stroke="#BC7C00"/>
<path fill-rule="evenodd" clip-rule="evenodd" d="M12.6358 16.2931C12.7341 16.1039 12.9296 15.9852 13.1429 15.9852H26.8571C27.0704 15.9852 27.2659 16.1039 27.3642 16.2931C27.4625 16.4823 27.4473 16.7106 27.3248 16.8851L20.5715 26.5018V37.1428H24.5714C24.887 37.1428 25.1429 37.3986 25.1429 37.7142C25.1429 38.0298 24.887 38.2857 24.5714 38.2857H15.4286C15.113 38.2857 14.8571 38.0298 14.8571 37.7142C14.8571 37.3986 15.113 37.1428 15.4286 37.1428H19.4286V26.5018L12.6752 16.8851C12.5527 16.7106 12.5375 16.4824 12.6358 16.2931ZM20 25.3269L25.7576 17.1281H14.2424L20 25.3269Z" fill="#BC7C00" stroke="#BC7C00"/>
</svg>
