<svg width="183" height="214" viewBox="0 0 183 214" fill="none" xmlns="http://www.w3.org/2000/svg">
<g clip-path="url(#clip0_37_2682)">
<rect width="183" height="214" fill="white"/>
<path d="M51.2987 184C4.79874 204.5 -18.2013 150.5 17.2987 129.5C-0.701294 148 5.29871 189 51.2987 184C51.2987 181 51.2987 166 56.7987 162C53.9054 166 53.2987 175 56.7987 181L51.2987 184Z" fill="black"/>
<path fill-rule="evenodd" clip-rule="evenodd" d="M3.10614 172.545C-4.1389 158.754 -0.942053 139.709 17.0442 129.07L17.6571 129.849C8.79337 138.959 5.83933 153.621 10.7599 165.369C13.2157 171.232 17.6345 176.375 24.2753 179.75C30.8332 183.082 39.5862 184.702 50.7992 183.55C50.8038 181.722 50.8576 177.567 51.4917 173.301C51.8383 170.97 52.3608 168.587 53.1523 166.524C53.9403 164.47 55.0162 162.678 56.5047 161.596L57.2039 162.293C55.8382 164.181 54.9758 167.318 54.9012 170.761C54.8268 174.193 55.5382 177.847 57.2307 180.748L57.49 181.193L51.5197 184.449L51.5005 184.457C39.7859 189.622 29.505 190.113 21.2297 187.564C12.9557 185.015 6.72748 179.438 3.10614 172.545ZM48.0807 184.781C38.049 185.424 30.0181 183.789 23.8223 180.641C16.963 177.156 12.3818 171.83 9.83758 165.756C5.22016 154.732 7.31731 141.261 14.6003 131.848C-0.286003 142.453 -2.59977 159.534 3.99142 172.08C7.49509 178.749 13.5169 184.141 21.5241 186.608C28.824 188.857 37.8081 188.684 48.0807 184.781ZM51.8009 183.157L56.1154 180.803C54.491 177.787 53.8278 174.136 53.9014 170.739C53.9401 168.953 54.1833 167.215 54.6092 165.66C54.4239 166.047 54.2496 166.456 54.0859 166.882C53.3305 168.851 52.8217 171.155 52.4808 173.449C51.8993 177.36 51.8136 181.187 51.8009 183.157Z" fill="black"/>
<path d="M67.2993 133.5C67.4046 133.516 67.5087 133.531 67.6114 133.545C69.0753 133.435 73.4191 130.141 74.7993 126C75.7888 128.639 77.2678 134.867 67.6114 133.545C67.4845 133.554 67.3791 133.54 67.2993 133.5Z" fill="black"/>
<path fill-rule="evenodd" clip-rule="evenodd" d="M74.7716 124.502L75.2675 125.824C75.5219 126.503 75.8132 127.426 75.947 128.411C76.0802 129.391 76.0632 130.475 75.6594 131.449C75.247 132.444 74.449 133.279 73.1188 133.765C71.8173 134.239 70.0231 134.375 67.5912 134.047C67.4283 134.053 67.2457 134.032 67.0757 133.947L67.3735 133.006C67.4565 133.018 67.5387 133.03 67.62 133.041C67.8706 133.007 68.312 132.834 68.8967 132.476C69.4986 132.107 70.195 131.577 70.8943 130.92C72.2976 129.601 73.6692 127.809 74.3249 125.842L74.7716 124.502ZM69.5931 133.219C70.967 133.264 72.0029 133.107 72.7761 132.825C73.8534 132.432 74.4345 131.793 74.7356 131.066C75.0455 130.319 75.0767 129.434 74.9561 128.545C74.9054 128.172 74.8289 127.806 74.7394 127.459C73.9397 129.097 72.756 130.542 71.5791 131.648C70.9007 132.286 70.2156 132.82 69.5931 133.219Z" fill="black"/>
<path d="M68.2993 189C68.466 193.167 57.2993 212 40.7993 214C45.2993 212.833 59.2993 206 66.7993 183.5C75.7993 185.5 92.6993 183.4 100.299 157C105.799 159 120.299 157 132.799 147.5C129.299 150.16 120.799 158 102.799 162.5C98.7993 171.667 94.7993 191.5 68.2993 189Z" fill="black"/>
<path fill-rule="evenodd" clip-rule="evenodd" d="M113.805 156.077C119.62 154.654 126.306 151.807 132.497 147.102L133.102 147.898C132.754 148.163 132.355 148.479 131.902 148.839C127.824 152.079 119.313 158.841 103.16 162.925C102.74 163.907 102.313 165.017 101.854 166.214C100.201 170.518 98.1214 175.932 94.3714 180.445C89.5106 186.294 81.8581 190.648 68.7724 189.544C68.7104 190.066 68.5501 190.681 68.3141 191.354C67.9819 192.302 67.4832 193.411 66.8334 194.62C65.5337 197.037 63.6158 199.875 61.1743 202.643C56.2994 208.17 49.2797 213.476 40.8595 214.496L40.6738 213.516C45.0102 212.392 58.8786 205.681 66.325 183.342L66.4676 182.914L66.9078 183.012C71.3152 183.991 77.6581 183.966 83.8275 180.465C89.9883 176.969 96.0459 169.968 99.8188 156.862L99.967 156.347L100.47 156.53C103.083 157.48 107.967 157.505 113.805 156.077ZM122.592 154.109C119.647 155.419 116.754 156.385 114.043 157.048C108.463 158.414 103.592 158.513 100.635 157.636C96.7972 170.614 90.6795 177.727 84.3211 181.335C78.0933 184.869 71.6999 185.004 67.1312 184.081C61.5526 200.495 52.5162 208.558 46.2801 212.155C51.9462 210.075 56.7724 206.122 60.4243 201.982C62.8161 199.27 64.6899 196.495 65.9527 194.146C66.5842 192.972 67.0594 191.91 67.3704 191.023C67.6859 190.123 67.8167 189.445 67.7997 189.02L67.7768 188.449L68.3463 188.502C81.4426 189.738 88.9021 185.462 93.6022 179.805C97.2347 175.434 99.2288 170.247 100.877 165.959C101.385 164.637 101.861 163.401 102.341 162.3L102.439 162.075L102.678 162.015C111.382 159.839 117.846 156.88 122.592 154.109Z" fill="black"/>
<path d="M182.799 116C183.999 119 164.799 138.2 96.7993 151L105.799 147.5C105.799 142.5 109.799 135 117.799 131.5C120.799 131.5 148.799 130.5 175.299 117C175.299 117 181.799 113.5 182.799 116Z" fill="black"/>
<path fill-rule="evenodd" clip-rule="evenodd" d="M181.221 114.602C182.059 114.628 182.906 114.92 183.264 115.814C183.397 116.149 183.365 116.526 183.258 116.889C183.148 117.259 182.944 117.669 182.657 118.112C182.082 118.999 181.13 120.079 179.765 121.306C177.03 123.765 172.579 126.869 165.978 130.27C152.774 137.072 130.925 145.085 96.8919 151.491L96.6182 150.534L105.305 147.156C105.481 141.954 109.609 134.538 117.599 131.042L117.695 131H117.799C120.763 131 148.67 130.003 175.068 116.557L175.072 116.555L175.299 117L175.536 117.44L175.526 117.446C149.21 130.852 121.436 131.977 117.905 132C110.137 135.443 106.299 142.733 106.299 147.5V147.842L102.18 149.444C133.031 143.243 153.142 135.758 165.52 129.381C172.07 126.006 176.443 122.948 179.096 120.563C180.425 119.368 181.308 118.355 181.818 117.568C182.074 117.174 182.226 116.852 182.299 116.605C182.374 116.35 182.351 116.227 182.335 116.186C182.193 115.83 181.852 115.622 181.19 115.601C180.527 115.581 179.686 115.763 178.827 116.039C177.979 116.311 177.155 116.662 176.541 116.946C176.234 117.088 175.982 117.212 175.806 117.301C175.719 117.345 175.65 117.38 175.604 117.404L175.553 117.432L175.54 117.438L175.536 117.44M175.072 116.555L175.084 116.548L175.141 116.518C175.191 116.492 175.263 116.455 175.355 116.408C175.539 116.315 175.802 116.186 176.121 116.038C176.756 115.745 177.62 115.376 178.521 115.087C179.413 114.8 180.385 114.576 181.221 114.602" fill="black"/>
<path d="M182.299 106C182.299 108.5 168.799 121 143.299 125.5L150.299 115C154.299 115 162.799 113 177.299 106C177.299 106 182.299 103.5 182.299 106Z" fill="black"/>
<path fill-rule="evenodd" clip-rule="evenodd" d="M182.475 104.97C182.699 105.25 182.8 105.603 182.8 106C182.8 106.258 182.715 106.529 182.596 106.789C182.474 107.057 182.299 107.349 182.077 107.661C181.634 108.284 180.984 109.019 180.138 109.83C178.443 111.453 175.928 113.412 172.622 115.427C166.008 119.459 156.199 123.731 143.386 125.992L142.235 126.196L150.032 114.5H150.3C154.181 114.5 162.595 112.543 177.079 105.551L177.081 105.55L177.082 105.55L177.093 105.544L177.138 105.522C177.177 105.504 177.233 105.477 177.304 105.444C177.445 105.378 177.647 105.288 177.888 105.187C178.369 104.987 179.019 104.742 179.678 104.577C180.318 104.417 181.045 104.312 181.64 104.46C181.949 104.538 182.253 104.692 182.475 104.97ZM177.517 106.45C163.313 113.308 154.787 115.411 150.569 115.497L144.369 124.796C156.49 122.51 165.791 118.42 172.102 114.573C175.358 112.588 177.812 110.672 179.446 109.108C180.263 108.325 180.867 107.638 181.262 107.082C181.46 106.803 181.599 106.567 181.687 106.374C181.778 106.174 181.8 106.054 181.8 106C181.8 105.772 181.744 105.657 181.694 105.595C181.643 105.531 181.556 105.47 181.397 105.43C181.054 105.345 180.531 105.395 179.921 105.548C179.33 105.695 178.73 105.919 178.273 106.11C178.046 106.205 177.857 106.29 177.725 106.351C177.659 106.382 177.608 106.406 177.573 106.423L177.535 106.442L177.525 106.446L177.523 106.447" fill="black"/>
<path d="M139.299 126.5H127.799C140.799 114 163.799 69.5 136.299 37.5C128.799 29.5 117.499 19.8 52.2993 27C49.7993 27 38.2993 27.5 42.7993 7V9H43.7993C43.1326 13 42.7993 18.5 44.7993 22.5C48.7993 26 45.7993 26 86.7993 23C123.299 20.3293 133.826 28.5 137.299 31.5C149.299 41.8636 170.673 75.1905 139.299 126.5Z" fill="black"/>
<path fill-rule="evenodd" clip-rule="evenodd" d="M39.6529 -0.353546L41.2994 1.2929V5.25001L43.2994 6.75001V8.50001H44.3896L44.2925 9.08221C43.6328 13.0407 43.3278 18.3496 45.2038 22.1898C45.4289 22.3886 45.6317 22.5754 45.8187 22.7477L45.8253 22.7538C46.0318 22.9442 46.2165 23.1145 46.3977 23.2711C46.7604 23.5845 47.0943 23.8298 47.5012 24.0263C48.3197 24.4217 49.5083 24.6565 51.9308 24.6875C56.2472 24.7429 64.2272 24.1565 80.4164 22.967C82.4052 22.8208 84.5179 22.6656 86.7629 22.5013C105.051 21.1632 116.867 22.5381 124.566 24.6412C132.28 26.7483 135.844 29.5828 137.626 31.1216C143.703 36.3699 152.112 47.3909 155.056 63.5557C158.003 79.7338 155.468 101.016 139.726 126.761L139.58 127H126.558L127.453 126.14C133.877 119.963 142.833 105.801 146.75 89.1977C150.663 72.6137 149.534 53.6739 135.927 37.8341C134.065 35.8476 131.989 33.7826 128.918 31.8981C125.841 30.0108 121.743 28.2918 115.833 27.0391C103.999 24.5308 84.9377 23.8988 52.3542 27.497L52.3269 27.5H52.2994C52.2433 27.5 52.182 27.5003 52.1158 27.5006C50.7386 27.5074 47.2449 27.5246 44.5841 25.0539C41.7919 22.4611 40.0828 17.3105 42.2428 7.20758L40.2994 5.75001V1.70711L38.9458 0.353561L39.6529 -0.353546ZM42.8178 9.50001C41.3473 18.0596 43.0343 22.2502 45.2646 24.3211C47.6268 26.5146 50.7582 26.5047 52.1354 26.5004C52.183 26.5002 52.2284 26.5001 52.2717 26.5C84.8717 22.9015 104.053 23.5199 116.041 26.0609C122.043 27.3332 126.251 29.0893 129.44 31.0457C132.63 33.0024 134.779 35.1469 136.664 37.158L136.672 37.1659L136.679 37.1741C150.565 53.3327 151.685 72.6392 147.723 89.4273C143.936 105.477 135.491 119.299 129.008 126H139.019C154.52 100.543 156.96 79.5889 154.073 63.7349C151.174 47.818 142.896 36.9937 136.973 31.8784C135.281 30.4173 131.845 27.6664 124.302 25.6058C116.745 23.5412 105.048 22.1661 86.8358 23.4987C84.578 23.6639 82.4531 23.82 80.4529 23.967C64.3096 25.1534 56.2806 25.7434 51.9179 25.6875C49.4654 25.656 48.0915 25.4221 47.0662 24.9268C46.5513 24.678 46.143 24.3726 45.7439 24.0277C45.5503 23.8604 45.3554 23.6807 45.1536 23.4947L45.1409 23.483C44.9329 23.2913 44.7146 23.0903 44.4701 22.8763L44.3961 22.8116L44.3521 22.7236C42.3741 18.7675 42.6086 13.4618 43.2132 9.50001H42.8178Z" fill="black"/>
<path d="M58.7987 43C36.7988 44 10.7988 23.5 34.7988 1C16.7988 19 32.2988 39.0368 55.7988 38C67.1322 37.5 92.8988 37.4 105.299 41C112.965 42.3333 128.999 51.2 131.799 76C131.632 84 124.999 99.6 101.799 100C97.6322 97 84.7988 95.5 67.2988 103C48.2988 94.2677 17.7988 100 2.79883 125C8.29883 108.5 34.2988 87 68.2988 96.5C72.2988 93.5 89.7988 89 105.299 93.5C105.299 93.5 116.96 91.5 119.799 87.5C123.465 82.3333 127.699 68.3 115.299 53.5C108.799 49 105.251 40.8885 58.7987 43Z" fill="black"/>
<path fill-rule="evenodd" clip-rule="evenodd" d="M24.8334 17.1372C25.4447 11.9167 28.3984 6.31496 34.4568 0.635239L35.1523 1.35356C30.7101 5.79577 28.3659 10.3317 27.6752 14.6007C26.985 18.866 27.9387 22.9022 30.1574 26.3693C34.6017 33.3142 44.1599 38.013 55.7768 37.5005C61.4553 37.25 70.7442 37.0998 80.1681 37.4629C89.5652 37.8249 99.1472 38.6988 105.412 40.5122C113.295 41.8976 129.473 50.9403 132.296 75.9439L132.299 75.9771L132.299 76.0104C132.213 80.1232 130.472 86.1431 125.803 91.1895C121.122 96.2504 113.528 100.298 101.807 100.5L101.641 100.503L101.507 100.406C99.5546 99.0003 95.437 97.8762 89.5646 98.0623C83.7171 98.2476 76.195 99.7314 67.4958 103.46L67.2917 103.547L67.09 103.454C48.3088 94.8225 18.0892 100.488 3.22755 125.257L2.32446 124.842C7.89271 108.137 34.0478 86.5415 68.2016 95.9541C69.3002 95.1943 71.1252 94.3873 73.4371 93.6561C75.9115 92.8735 78.9861 92.1645 82.4181 91.6922C89.2451 90.7527 97.5227 90.7449 105.326 92.9874L105.341 92.9846C105.426 92.9693 105.55 92.9462 105.711 92.9153C106.032 92.8535 106.494 92.7606 107.058 92.6367C108.187 92.3886 109.719 92.0168 111.338 91.5219C112.959 91.0262 114.653 90.4108 116.111 89.6782C117.581 88.9395 118.753 88.1095 119.391 87.2106C122.939 82.211 127.141 68.4573 114.958 53.8723C114.181 53.3305 113.453 52.7479 112.699 52.144C110.248 50.1817 107.516 47.9942 101.883 46.2483C94.4602 43.9477 82.0293 42.4446 58.8214 43.4995C47.6873 44.0056 35.5232 39.0809 29.1584 31.1249C25.9657 27.1341 24.2214 22.3635 24.8334 17.1372ZM105.299 93.5L105.383 93.9928L105.27 94.0123L105.159 93.9802C97.4954 91.7551 89.3197 91.7518 82.5545 92.6828C79.174 93.148 76.1549 93.8453 73.7387 94.6095C71.3085 95.3782 69.5299 96.2017 68.5988 96.9L68.4016 97.0479L68.1643 96.9816C37.9958 88.5521 14.221 104.733 5.65709 119.876C21.5699 98.872 49.3824 94.3457 67.3054 102.453C76.0206 98.7453 83.5934 97.251 89.533 97.0628C95.372 96.8777 99.6964 97.9542 101.952 99.497C113.338 99.2648 120.614 95.3268 125.069 90.5105C129.546 85.6707 131.208 79.9096 131.298 76.0227C128.514 51.4807 112.67 42.7894 105.213 41.4926L105.186 41.4879L105.159 41.4802C99.0235 39.6988 89.5359 38.8246 80.1296 38.4621C70.7368 38.1002 61.4757 38.25 55.8208 38.4995C43.9378 39.0238 33.9959 34.2226 29.3151 26.9083C26.9714 23.2458 25.9563 18.9626 26.688 14.4409C26.8162 13.6487 26.9978 12.8503 27.2347 12.0477C26.4808 13.8308 26.0238 15.5701 25.8266 17.2535C25.2512 22.1678 26.8818 26.6784 29.9392 30.5002C36.0744 38.1691 47.9102 42.9944 58.776 42.5005C82.0203 41.444 94.5894 42.9408 102.179 45.2931C108.01 47.1004 110.918 49.4306 113.385 51.4079C114.135 52.009 114.845 52.5776 115.583 53.0889L115.639 53.1273L115.682 53.1789C128.246 68.175 123.988 82.4616 120.207 87.7894C119.425 88.8905 118.075 89.8105 116.56 90.5718C115.033 91.3392 113.28 91.9738 111.631 92.4781C109.979 92.9832 108.419 93.3614 107.273 93.6134C106.699 93.7394 106.228 93.834 105.9 93.8972C105.736 93.9288 105.608 93.9526 105.52 93.9685C105.476 93.9765 105.442 93.9825 105.419 93.9865L105.393 93.9911L105.386 93.9923L105.384 93.9927L105.384 93.9928C105.383 93.9928 105.383 93.9928 105.299 93.5Z" fill="black"/>
</g>
<defs>
<clipPath id="clip0_37_2682">
<rect width="183" height="214" fill="white"/>
</clipPath>
</defs>
</svg>
