<svg width="32" height="40" viewBox="0 0 32 40" fill="none" xmlns="http://www.w3.org/2000/svg">
<path fill-rule="evenodd" clip-rule="evenodd" d="M6.3101 2.12052C6.38293 1.87929 6.60517 1.71423 6.85715 1.71423H9.71429V10.2857C9.71429 10.6013 9.45845 10.8571 9.14286 10.8571C8.82727 10.8571 8.57143 10.6013 8.57143 10.2857V2.85709H7.27166C7.22644 2.98922 7.1763 3.13204 7.1225 3.28528C6.52044 5.00016 5.46031 8.01977 5.71311 11.9634C5.80223 13.3536 6.44415 14.8636 8.31411 16.094C8.38184 16.1386 8.43932 16.1971 8.48271 16.2656C8.95798 17.0157 9.26226 17.9418 9.44905 18.8067C9.63682 19.6762 9.71429 20.5238 9.71429 21.1428C9.71429 21.1651 9.71299 21.1874 9.71038 21.2095L9.14286 21.1428C9.71038 21.2095 9.71039 21.2094 9.71038 21.2095L9.69453 21.3454C9.68419 21.4343 9.66905 21.5651 9.64987 21.7321C9.61151 22.0662 9.55701 22.5453 9.49249 23.1254C9.36343 24.2856 9.19434 25.8485 9.03412 27.4606C8.87381 29.0735 8.72278 30.7315 8.62947 32.0832C8.58278 32.7595 8.5509 33.3541 8.53926 33.8257C8.52717 34.3152 8.53881 34.6232 8.56261 34.7571C8.79162 36.0452 9.57306 37.1428 10.8571 37.1428V38.2857C8.73811 38.2857 7.70404 36.457 7.4374 34.9571C7.39058 34.6937 7.38496 34.2752 7.39675 33.7975C7.40899 33.3018 7.44211 32.6884 7.48933 32.0045C7.58381 30.6358 7.73615 28.9645 7.89687 27.3475C8.05768 25.7296 8.22728 24.1619 8.35664 22.999C8.42133 22.4175 8.47598 21.937 8.51447 21.6017C8.53371 21.4341 8.54892 21.3028 8.55932 21.2134L8.57135 21.1102C8.56864 20.5754 8.49945 19.8236 8.33194 19.048C8.16949 18.2957 7.92202 17.5562 7.57844 16.9769C5.48239 15.5555 4.68229 13.7477 4.5726 12.0365C4.30307 7.8321 5.45773 4.5627 6.05432 2.87347C6.16136 2.57037 6.25044 2.31814 6.3101 2.12052Z" fill="#BC7C00"/>
<path d="M9.71038 21.2095C9.71299 21.1874 9.71429 21.1651 9.71429 21.1428C9.71429 20.5238 9.63682 19.6762 9.44905 18.8067C9.26226 17.9418 8.95798 17.0157 8.48271 16.2656C8.43932 16.1971 8.38184 16.1386 8.31411 16.094C6.44415 14.8636 5.80223 13.3536 5.71311 11.9634C5.46031 8.01977 6.52044 5.00016 7.1225 3.28528C7.1763 3.13204 7.22644 2.98922 7.27166 2.85709H8.57143V10.2857C8.57143 10.6013 8.82727 10.8571 9.14286 10.8571C9.45845 10.8571 9.71429 10.6013 9.71429 10.2857V1.71423H6.85715C6.60516 1.71423 6.38293 1.87929 6.3101 2.12052C6.25044 2.31814 6.16136 2.57037 6.05432 2.87347C5.45773 4.5627 4.30307 7.8321 4.5726 12.0365C4.68229 13.7477 5.48239 15.5555 7.57844 16.9769C7.92202 17.5562 8.16949 18.2957 8.33194 19.048C8.49945 19.8236 8.56864 20.5754 8.57135 21.1102L8.55932 21.2134C8.54892 21.3028 8.53371 21.4341 8.51447 21.6017C8.47598 21.937 8.42133 22.4175 8.35664 22.999C8.22728 24.1619 8.05768 25.7296 7.89687 27.3475C7.73615 28.9645 7.58381 30.6358 7.48933 32.0045C7.44211 32.6884 7.40899 33.3018 7.39675 33.7975C7.38496 34.2752 7.39058 34.6937 7.4374 34.9571C7.70404 36.457 8.73811 38.2857 10.8571 38.2857V37.1428C9.57306 37.1428 8.79162 36.0452 8.56261 34.7571C8.53881 34.6232 8.52717 34.3152 8.53926 33.8257C8.5509 33.3541 8.58278 32.7595 8.62947 32.0832C8.72278 30.7315 8.87381 29.0735 9.03412 27.4606C9.19434 25.8485 9.36343 24.2856 9.49249 23.1254C9.55701 22.5453 9.61151 22.0662 9.64987 21.7321C9.66905 21.5651 9.68419 21.4343 9.69453 21.3454L9.71038 21.2095ZM9.71038 21.2095L9.14286 21.1428C9.71038 21.2095 9.71039 21.2094 9.71038 21.2095Z" stroke="#BC7C00"/>
<path fill-rule="evenodd" clip-rule="evenodd" d="M15.4042 2.12052C15.3314 1.87929 15.1091 1.71423 14.8571 1.71423H9.14285V2.85709H12V10.2857C12 10.6013 12.2558 10.8571 12.5714 10.8571C12.887 10.8571 13.1429 10.6013 13.1429 10.2857V2.85709H14.4426C14.4879 2.98922 14.538 3.13204 14.5918 3.28527C15.1939 5.00015 16.254 8.01976 16.0012 11.9634C15.9121 13.3536 15.2701 14.8636 13.4002 16.094C13.3324 16.1386 13.275 16.1971 13.2316 16.2656C12.7563 17.0157 12.452 17.9418 12.2652 18.8067C12.0775 19.6762 12 20.5238 12 21.1428C12 21.1651 12.0013 21.1874 12.0039 21.2095L12.5714 21.1428C12.0039 21.2095 12.0039 21.2094 12.0039 21.2095L12.0198 21.3454C12.0301 21.4343 12.0452 21.5651 12.0644 21.7321C12.1028 22.0662 12.1573 22.5453 12.2218 23.1254C12.3509 24.2856 12.5199 25.8485 12.6802 27.4606C12.8405 29.0735 12.9915 30.7315 13.0848 32.0832C13.1315 32.7595 13.1634 33.3541 13.175 33.8257C13.1871 34.3152 13.1755 34.6232 13.1517 34.7571C12.9227 36.0452 12.1412 37.1428 10.8571 37.1428V38.2857C12.9762 38.2857 14.0103 36.457 14.2769 34.9571C14.3237 34.6937 14.3293 34.2752 14.3175 33.7975C14.3053 33.3018 14.2722 32.6884 14.225 32.0045C14.1305 30.6358 13.9781 28.9645 13.8174 27.3475C13.6566 25.7296 13.487 24.1619 13.3577 22.999C13.293 22.4175 13.2383 21.937 13.1998 21.6017C13.1806 21.4341 13.1654 21.3028 13.155 21.2134L13.1429 21.1102C13.1457 20.5754 13.2148 19.8236 13.3824 19.048C13.5448 18.2957 13.7923 17.5562 14.1359 16.9769C16.2319 15.5555 17.032 13.7477 17.1417 12.0365C17.4112 7.8321 16.2566 4.5627 15.66 2.87346C15.5529 2.57037 15.4639 2.31814 15.4042 2.12052Z" fill="#BC7C00"/>
<path d="M12.0039 21.2095C12.0013 21.1874 12 21.1651 12 21.1428C12 20.5238 12.0775 19.6762 12.2652 18.8067C12.452 17.9418 12.7563 17.0157 13.2316 16.2656C13.275 16.1971 13.3324 16.1386 13.4002 16.094C15.2701 14.8636 15.9121 13.3536 16.0012 11.9634C16.254 8.01976 15.1939 5.00015 14.5918 3.28527C14.538 3.13204 14.4879 2.98922 14.4426 2.85709H13.1429V10.2857C13.1429 10.6013 12.887 10.8571 12.5714 10.8571C12.2558 10.8571 12 10.6013 12 10.2857V2.85709H9.14285V1.71423H14.8571C15.1091 1.71423 15.3314 1.87929 15.4042 2.12052C15.4639 2.31814 15.5529 2.57037 15.66 2.87346C16.2566 4.5627 17.4112 7.8321 17.1417 12.0365C17.032 13.7477 16.2319 15.5555 14.1359 16.9769C13.7923 17.5562 13.5448 18.2957 13.3824 19.048C13.2148 19.8236 13.1457 20.5754 13.1429 21.1102L13.155 21.2134C13.1654 21.3028 13.1806 21.4341 13.1998 21.6017C13.2383 21.937 13.293 22.4175 13.3577 22.999C13.487 24.1619 13.6566 25.7296 13.8174 27.3475C13.9781 28.9645 14.1305 30.6358 14.225 32.0045C14.2722 32.6884 14.3053 33.3018 14.3175 33.7975C14.3293 34.2752 14.3237 34.6937 14.2769 34.9571C14.0103 36.457 12.9762 38.2857 10.8571 38.2857V37.1428C12.1412 37.1428 12.9227 36.0452 13.1517 34.7571C13.1755 34.6232 13.1871 34.3152 13.175 33.8257C13.1634 33.3541 13.1315 32.7595 13.0848 32.0832C12.9915 30.7315 12.8405 29.0735 12.6802 27.4606C12.5199 25.8485 12.3509 24.2856 12.2218 23.1254C12.1573 22.5453 12.1028 22.0662 12.0644 21.7321C12.0452 21.5651 12.0301 21.4343 12.0198 21.3454L12.0039 21.2095ZM12.0039 21.2095L12.5714 21.1428C12.0039 21.2095 12.0039 21.2094 12.0039 21.2095Z" stroke="#BC7C00"/>
<path fill-rule="evenodd" clip-rule="evenodd" d="M20.2829 1.79241C20.4582 1.68992 20.6746 1.68809 20.8515 1.7876C23.3263 3.17936 24.9932 4.83454 26.0307 6.63402C27.0682 8.43358 27.458 10.3458 27.4269 12.2235C27.3672 15.8204 25.7644 19.3109 24.1802 21.7705C24.7606 22.9519 25.5554 24.9285 26.0422 27.2243C26.572 29.723 26.7482 32.6535 25.8329 35.3588C25.1992 37.2318 23.8825 38.3508 22.5088 38.2828C21.0711 38.2117 20.0698 36.8912 20.0004 34.9097C20.0001 34.903 20 34.8963 20 34.8897V2.28566C20 2.08266 20.1077 1.8949 20.2829 1.79241ZM21.1429 3.29501V34.8794C21.2042 36.5476 21.9712 37.112 22.5653 37.1414C23.2247 37.174 24.204 36.6073 24.7503 34.9925C25.5746 32.5563 25.4315 29.8541 24.9242 27.4613C24.4179 25.0731 23.56 23.0466 23.0145 21.9972C22.9186 21.8127 22.9305 21.5907 23.0456 21.4175C24.6289 19.0342 26.2274 15.6302 26.2842 12.2046C26.3124 10.5018 25.96 8.79953 25.0406 7.20485C24.2386 5.81386 22.9913 4.48066 21.1429 3.29501Z" fill="#BC7C00" stroke="#BC7C00" stroke-linejoin="round"/>
</svg>
