<svg width="12" height="11" viewBox="0 0 12 11" fill="none" xmlns="http://www.w3.org/2000/svg">
<path fill-rule="evenodd" clip-rule="evenodd" d="M5.99999 0.916667C5.02753 0.916667 4.0949 1.30297 3.40726 1.99061C2.71963 2.67824 2.33332 3.61087 2.33332 4.58333C2.33332 6.00328 3.2572 7.38111 4.27022 8.45041C4.76735 8.97516 5.26605 9.40476 5.64097 9.7033C5.7805 9.81441 5.90238 9.90697 5.99999 9.9791C6.0976 9.90697 6.21948 9.81441 6.35901 9.7033C6.73393 9.40476 7.23263 8.97516 7.72976 8.45041C8.74278 7.38111 9.66666 6.00328 9.66666 4.58333C9.66666 3.61087 9.28035 2.67824 8.59271 1.99061C7.90508 1.30297 6.97245 0.916667 5.99999 0.916667ZM5.99999 10.5417C5.74575 10.923 5.74564 10.9229 5.7455 10.9229L5.74419 10.922L5.74114 10.9199L5.73064 10.9128C5.72171 10.9068 5.70898 10.8981 5.6927 10.8868C5.66015 10.8642 5.61337 10.8314 5.55439 10.7888C5.43649 10.7036 5.26957 10.5794 5.06995 10.4204C4.67143 10.1031 4.13888 9.64463 3.60476 9.08084C2.55528 7.97305 1.41666 6.37172 1.41666 4.58333C1.41666 3.36776 1.89954 2.20197 2.75908 1.34243C3.61863 0.482885 4.78441 0 5.99999 0C7.21556 0 8.38135 0.482885 9.2409 1.34243C10.1004 2.20197 10.5833 3.36776 10.5833 4.58333C10.5833 6.37172 9.4447 7.97305 8.39522 9.08084C7.8611 9.64463 7.32855 10.1031 6.93003 10.4204C6.73041 10.5794 6.56349 10.7036 6.44559 10.7888C6.38661 10.8314 6.33983 10.8642 6.30728 10.8868C6.291 10.8981 6.27827 10.9068 6.26934 10.9128L6.25884 10.9199L6.25579 10.922L6.25482 10.9226C6.25469 10.9227 6.25423 10.923 5.99999 10.5417ZM5.99999 10.5417L6.25423 10.923C6.10027 11.0257 5.89946 11.0255 5.7455 10.9229L5.99999 10.5417Z" fill="#F6F4F7"/>
<path fill-rule="evenodd" clip-rule="evenodd" d="M5.99999 3.66667C5.49373 3.66667 5.08332 4.07707 5.08332 4.58333C5.08332 5.08959 5.49373 5.5 5.99999 5.5C6.50625 5.5 6.91666 5.08959 6.91666 4.58333C6.91666 4.07707 6.50625 3.66667 5.99999 3.66667ZM4.16666 4.58333C4.16666 3.57081 4.98747 2.75 5.99999 2.75C7.01251 2.75 7.83332 3.57081 7.83332 4.58333C7.83332 5.59586 7.01251 6.41667 5.99999 6.41667C4.98747 6.41667 4.16666 5.59586 4.16666 4.58333Z" fill="#F6F4F7"/>
</svg>
