<?xml version="1.0" ?><svg id="Layer_1" style="enable-background:new 0 0 512 512;" version="1.1" viewBox="0 0 512 512" xml:space="preserve" xmlns="http://www.w3.org/2000/svg" xmlns:xlink="http://www.w3.org/1999/xlink"><style type="text/css">
	.st0{fill-rule:evenodd;clip-rule:evenodd;}
</style><g><g><g><path d="M472.2,279.7c-9.5-21.9-27.7-38.9-48.7-39.2H203.2c-22-0.2-41.2,15.7-50.5,39.2H472.2z"/><path d="M147.7,363.9c5.4,31.9,27.7,58.2,54.4,58.4h220.3c27.7,0.3,50.8-25,55.6-58.4H147.7z"/></g><g><path d="M132.2,321.9c20.5,0,20.5-14.5,40.9-14.5c20.5,0,20.5,14.5,40.9,14.5c20.5,0,20.5-14.5,40.9-14.5     c20.5,0,20.5,14.5,40.9,14.5c20.5,0,20.5-14.5,40.9-14.5c20.5,0,20.5,14.5,40.9,14.5c20.5,0,20.5-14.5,40.9-14.5     c20.5,0,20.5,14.5,40.9,14.5c20.5,0,20.5-14.5,40.9-14.5c1.5,0,2.9,0.1,4.1,0.2c-3.3-10.5-11.3-18-20.8-18H148.8     c-12.3,0-22.4,12.7-22.4,28.4v3.4C128.2,321.7,130.1,321.9,132.2,321.9z"/><path d="M500.3,323.3c-20.5,0-20.5,14.5-40.9,14.5c-20.5,0-20.5-14.5-40.9-14.5c-20.5,0-20.5,14.5-40.9,14.5     c-20.5,0-20.5-14.5-40.9-14.5c-20.5,0-20.5,14.5-40.9,14.5c-20.5,0-20.5-14.5-40.9-14.5c-20.5,0-20.5,14.5-40.9,14.5     c-20.5,0-20.5-14.5-40.9-14.5c-20.5,0-20.5,14.5-40.9,14.5c-1.5,0-2.9-0.1-4.1-0.2c3.3,10.5,11.3,18,20.8,18h334.8     c12.3,0,22.4-12.7,22.4-28.4v-3.4C504.3,323.4,502.4,323.3,500.3,323.3z"/></g></g><path class="st0" d="M125.2,329c-3.7-0.6-6.4-3.8-6.4-7.6V318c0-18.5,11.6-33.8,26.6-35.9c-0.6-1.7-0.5-3.6,0.1-5.3   c10.8-27.1,32.7-44,57.2-44h0l7.5-64.5c0-0.3,0-0.6,0-0.8h9.4v-12.5h-11v-7H81l-13-42.5c-2.9-9.5-11.5-15.9-21.4-15.9H6v6.1h40.6   c7.2,0,13.4,4.6,15.6,11.5l12.4,40.7H54.8v7h-11v12.5h9.4c0,0.3,0,0.5,0,0.8l28.1,242.9c0.6,6.2,5.9,10.9,12.1,10.9h37.8h0.9H170   c1.6,0,3.1-0.3,4.5-0.9c-17.1-10.9-30.1-31.3-34.4-56.3c-0.2-1.1-0.1-2.3,0.2-3.4c-8.9-3.1-16.2-11-19.6-21.9   c-0.8-2.5-0.2-5.1,1.4-7.1"/></g></svg>