<svg width="24" height="24" viewBox="0 0 24 24" fill="none" xmlns="http://www.w3.org/2000/svg">
<path d="M22.584 1.00154C22.3182 1.01277 22.0594 1.08395 21.826 1.17386C21.5951 1.26317 20.2653 1.80924 18.3016 2.61701C16.3379 3.42478 13.7853 4.47667 11.2549 5.51971C6.19412 7.60581 1.22104 9.65837 1.22104 9.65837L1.25729 9.64504C1.25729 9.64504 0.957138 9.74157 0.652827 9.94557C0.500672 10.0476 0.336977 10.1792 0.202946 10.3712C0.0689143 10.5632 -0.0290713 10.8353 0.00785478 11.1231C0.137556 12.1338 1.22637 12.4206 1.22637 12.4206L1.23064 12.4226L6.08978 14.0227C6.21367 14.4203 7.56358 18.7552 7.86052 19.6732C8.02452 20.1808 8.17801 20.4735 8.33812 20.6733C8.41824 20.7732 8.50221 20.8506 8.59505 20.9071C8.63193 20.9296 8.67073 20.9465 8.70912 20.9615H8.71125C8.71596 20.9635 8.7204 20.9637 8.72511 20.9656L8.71231 20.9625C8.72123 20.966 8.73004 20.9718 8.73897 20.9748C8.75629 20.9807 8.7669 20.9805 8.78907 20.9851C9.34557 21.172 9.8061 20.8251 9.8061 20.8251L9.82529 20.8107L12.8103 18.147L17.6545 21.781L17.7153 21.8077C18.5632 22.1699 19.33 21.9678 19.7547 21.6354C20.1793 21.3029 20.3463 20.8743 20.3463 20.8743L20.3645 20.8292L23.9241 2.97908C24.0151 2.57973 24.0281 2.23454 23.9422 1.92262C23.8563 1.61069 23.6476 1.33954 23.3857 1.18925C23.1238 1.03895 22.8499 0.990324 22.584 1.00154ZM22.6128 2.06929C22.7208 2.06448 22.8008 2.07635 22.826 2.09083C22.8512 2.1053 22.8626 2.1034 22.8868 2.19135C22.911 2.27929 22.9241 2.46454 22.858 2.75445L22.8559 2.7606L19.3165 20.5071C19.3081 20.525 19.2344 20.6891 19.066 20.821C18.8942 20.9555 18.7031 21.0604 18.1961 20.8558L12.8988 16.8813L12.7495 16.7685L12.7463 16.7715L11.1621 15.6279L20.0649 5.55048C20.1333 5.47325 20.177 5.3786 20.1907 5.27799C20.2044 5.17737 20.1875 5.0751 20.142 4.98353C20.0966 4.89196 20.0245 4.81501 19.9346 4.762C19.8447 4.70898 19.7407 4.68217 19.6353 4.6848C19.5322 4.68738 19.4321 4.71796 19.3464 4.77301L6.46397 13.036L1.59736 11.4328C1.59736 11.4328 1.11411 11.1741 1.09098 10.9938C1.0897 10.9838 1.08399 10.9929 1.1091 10.9569C1.13422 10.9209 1.19734 10.8602 1.27648 10.8071C1.43476 10.701 1.61549 10.6369 1.61549 10.6369L1.63361 10.6307L1.65173 10.6235C1.65173 10.6235 6.62507 8.57088 11.6856 6.48489C14.2158 5.44189 16.768 4.39078 18.7312 3.58321C20.6939 2.77585 22.1121 2.19471 22.2322 2.14827C22.3689 2.0956 22.5048 2.0741 22.6128 2.06929ZM16.7089 7.727L9.95748 15.3694L9.95428 15.3725C9.94374 15.3847 9.93378 15.3974 9.92443 15.4104C9.91372 15.4247 9.90376 15.4394 9.89458 15.4546C9.85665 15.5165 9.83234 15.5853 9.82316 15.6566C9.82315 15.658 9.82315 15.6593 9.82316 15.6607L8.94365 19.466C8.92903 19.4249 8.91879 19.4099 8.90314 19.3614V19.3604C8.62379 18.4968 7.35019 14.4086 7.17398 13.8432L16.7089 7.727ZM10.7197 16.6218L11.9329 17.4977L10.1504 19.0875L10.7197 16.6218Z" fill="#D9BD88"/>
</svg>
