<svg width="19" height="22" viewBox="0 0 19 22" fill="none" xmlns="http://www.w3.org/2000/svg">
<path fill-rule="evenodd" clip-rule="evenodd" d="M9.57811 0.864823C9.5782 0.588746 9.80203 0.36499 10.0781 0.36499H13.5163C13.7924 0.36499 14.0163 0.588848 14.0163 0.86499C14.0163 1.93799 14.4104 2.91811 15.0669 3.67072L15.067 3.67079C15.6676 4.3596 16.478 4.85735 17.3965 5.05192L17.3992 5.05251C17.6846 5.1146 17.9829 5.14792 18.295 5.14792C18.5711 5.14792 18.795 5.37178 18.795 5.64792V9.08409C18.795 9.36023 18.5711 9.58409 18.295 9.58409C16.7412 9.58409 15.2799 9.17441 14.0161 8.45931V14.5357C14.0161 18.3037 10.9529 21.365 7.19227 21.365C5.22326 21.365 3.44575 20.522 2.20066 19.1859L2.20025 19.1854C1.06505 17.9642 0.368347 16.3301 0.368347 14.5357C0.368347 10.8671 3.27123 7.86821 6.89701 7.72001C7.03002 7.71245 7.14842 7.70648 7.19235 7.70648C7.51125 7.70648 7.81681 7.73185 8.11221 7.77131C8.36056 7.80449 8.54601 8.01636 8.54601 8.26691V11.7774C8.54601 11.9363 8.47047 12.0858 8.34251 12.18C8.21456 12.2742 8.04943 12.302 7.89767 12.2549C7.66953 12.184 7.43208 12.1428 7.19235 12.1428C5.87744 12.1428 4.80643 13.2141 4.80643 14.5311C4.80643 15.0524 4.97431 15.5306 5.25823 15.9225C5.7012 16.5288 6.40047 16.9241 7.19227 16.9241C8.47266 16.9241 9.52309 15.9036 9.57351 14.633L9.57811 0.864823ZM6.94634 8.71884C6.98082 8.71747 7.01538 8.71641 7.05001 8.71566L7.04996 8.71308C7.08647 8.71113 7.11839 8.70952 7.14412 8.70835C7.17938 8.70675 7.19281 8.70648 7.19235 8.70648C7.3111 8.70648 7.4288 8.7107 7.54601 8.71848V11.1627C7.43029 11.1498 7.31225 11.1428 7.19235 11.1428C5.32436 11.1428 3.80643 12.6626 3.80643 14.5311C3.80643 15.2727 4.04665 15.955 4.44909 16.5102L4.45009 16.5115C5.06499 17.3537 6.05421 17.9241 7.19227 17.9241C9.0175 17.9241 10.5078 16.4693 10.5732 14.6605C10.5734 14.6546 10.5735 14.6486 10.5735 14.6427L10.5779 1.36499H13.0397C13.1457 2.49224 13.6067 3.51798 14.3132 4.32799C15.0486 5.1713 16.0468 5.78789 17.1879 6.02993C17.3857 6.07292 17.5881 6.10467 17.795 6.12434V8.56805C16.3134 8.47274 14.9445 7.957 13.8077 7.14092C13.6554 7.03158 13.4547 7.01664 13.2878 7.10224C13.121 7.18785 13.0161 7.35959 13.0161 7.5471V14.5357C13.0161 17.7517 10.4003 20.365 7.19227 20.365C5.51441 20.365 3.99774 19.6475 2.93227 18.5041C1.96132 17.4594 1.36835 16.0658 1.36835 14.5357C1.36835 11.4799 3.72878 8.96951 6.71523 8.73256C6.79306 8.72779 6.87329 8.72301 6.94634 8.71884Z" fill="#D9BD88"/>
</svg>
