<svg width="24" height="24" viewBox="0 0 24 24" fill="none" xmlns="http://www.w3.org/2000/svg">
<path d="M11.6994 0.000530107C10.9853 0.00460636 10.2691 0.0474042 9.54686 0.135038C8.16574 0.304192 6.79689 0.585436 5.48328 1.18665C3.39421 2.14247 1.91282 3.76471 1.48314 6.12268C1.30103 7.11722 1.15371 8.12603 1.06982 9.14095C0.908182 11.1117 1.00844 13.0886 1.56908 15.0308C2.01104 16.5613 2.82539 17.937 4.25153 18.8296C4.85513 19.2066 5.65107 19.39 6.06643 19.5816C6.18305 19.6366 6.2117 19.6693 6.21784 19.6774C6.22398 19.6835 6.24035 19.6978 6.2383 19.8201C6.22398 21.0673 6.2383 23.4803 6.2383 23.4803L6.24035 24H7.17542L7.32683 23.8533C7.32683 23.8533 9.70236 21.5768 10.5617 20.6393C10.7172 20.4722 10.797 20.3785 10.8134 20.3683C10.8277 20.3581 10.8032 20.352 10.9628 20.3479C12.0902 20.3255 13.2155 20.2827 14.3409 20.2215C15.8243 20.14 17.3364 19.9994 18.7912 19.3941C20.0577 18.8663 21.1156 18.0042 21.756 16.7121C22.4108 15.3874 22.7606 13.9832 22.8916 12.5301C23.1085 10.111 23.0328 7.68786 22.3616 5.29933C21.9668 3.89922 21.1729 2.71514 19.9554 1.87957C18.4986 0.880945 16.8556 0.505954 15.2473 0.267508C14.3082 0.128924 13.3629 0.0372143 12.4135 0.0086821C12.1761 0.00256797 11.9388 -0.00150776 11.6994 0.000530107ZM12.3848 1.05214C13.2871 1.07659 14.1895 1.16423 15.0939 1.29873C16.6448 1.52903 18.1078 1.87957 19.3621 2.7396C20.379 3.4366 21.0133 4.37815 21.3529 5.57853C21.979 7.81218 22.0588 10.1009 21.8481 12.4384C21.7274 13.7856 21.4061 15.0552 20.8148 16.2515C20.293 17.3072 19.4787 17.9777 18.3861 18.4322C17.1175 18.96 15.7384 19.1007 14.2857 19.1801C13.1726 19.2413 12.0574 19.282 10.9423 19.3045C10.662 19.3106 10.3878 19.3839 10.1934 19.5266C9.99905 19.6693 9.91107 19.8017 9.79035 19.9322C9.17651 20.6006 7.95294 21.7765 7.28591 22.4205C7.28182 21.642 7.27568 20.7005 7.28591 19.8323C7.29 19.5653 7.22862 19.2922 7.07516 19.0762C6.9217 18.8602 6.71095 18.7297 6.50839 18.636C5.91706 18.3629 5.14363 18.155 4.80807 17.9451C3.63565 17.2114 2.97066 16.1109 2.57576 14.7414C2.0581 12.95 1.95988 11.1056 2.11334 9.22859C2.19518 8.25443 2.33637 7.27822 2.51438 6.31017C2.88677 4.27014 4.05715 2.9862 5.91911 2.13431C7.09562 1.59628 8.35193 1.33134 9.67577 1.17034C10.5781 1.06029 11.4804 1.02564 12.3848 1.05214ZM12.6058 3.65262C12.1741 3.65262 11.7546 3.70154 11.3474 3.79121C11.0671 3.85642 10.8891 4.13563 10.9525 4.41687C11.016 4.69812 11.2983 4.87338 11.5807 4.81021C11.9101 4.7348 12.2539 4.69608 12.6058 4.69608C15.1634 4.69608 17.2259 6.75038 17.2259 9.29584C17.2259 9.64842 17.187 9.9908 17.1113 10.321C17.0479 10.6002 17.2239 10.8814 17.5062 10.9446C17.7886 11.0078 18.0689 10.8305 18.1323 10.5492C18.2244 10.1457 18.2735 9.7279 18.2735 9.29584C18.2735 6.18586 15.7302 3.65262 12.6058 3.65262ZM7.38003 4.69812C7.29409 4.69404 7.20611 4.70015 7.11404 4.72053C6.16259 4.93045 5.21729 5.61725 5.19069 6.84413C5.21729 7.01532 5.21524 7.19874 5.27867 7.35363C5.58968 8.11176 5.85977 8.89436 6.24853 9.61173C8.14118 13.0967 11.0037 15.5199 14.6519 17.0586C15.0877 17.242 15.5379 17.2807 15.9778 17.0973C16.5834 16.8466 17.097 16.4594 17.4387 15.903C17.9073 15.1388 17.9134 14.6089 17.142 14.0444C16.6366 13.6735 16.1394 13.2924 15.6279 12.9296C14.8483 12.3793 14.0053 12.2835 13.4242 13.2496C13.3935 13.2985 13.3485 13.3392 13.3097 13.38C13.0109 13.6959 12.6447 13.7733 12.2559 13.6144C10.7807 13.0091 9.64098 12.0329 8.95349 10.5798C8.54836 9.72586 8.65885 9.29788 9.41591 8.72928C9.49162 8.67425 9.56323 8.61515 9.6328 8.55197C9.96427 8.25035 10.0522 7.89166 9.85582 7.4861C9.41182 6.56085 8.82049 5.73546 8.07161 5.0242C7.86905 4.83262 7.63784 4.71238 7.38003 4.69812ZM12.5976 5.21781C12.3664 5.21781 12.1372 5.23615 11.9122 5.27487C11.7219 5.29933 11.5602 5.42568 11.4907 5.60299C11.4211 5.78233 11.4559 5.98409 11.5786 6.13083C11.7035 6.27553 11.8999 6.34278 12.0881 6.30202C12.2518 6.27553 12.4237 6.26126 12.5976 6.26126C14.3 6.26126 15.6668 7.62264 15.6668 9.31826C15.6668 9.49149 15.6525 9.66268 15.6259 9.82572C15.5849 10.0132 15.6525 10.2089 15.7977 10.3332C15.945 10.4555 16.1476 10.4901 16.3277 10.4208C16.5057 10.3515 16.6325 10.1905 16.6571 10.001C16.696 9.77681 16.7144 9.54855 16.7144 9.31826C16.7144 7.06016 14.8647 5.21781 12.5976 5.21781ZM12.524 6.78299C12.3357 6.78095 12.1597 6.87877 12.0636 7.04181C11.9695 7.20485 11.9695 7.40458 12.0636 7.56762C12.1597 7.73066 12.3357 7.82848 12.524 7.82644C13.3976 7.82644 14.0954 8.5214 14.0954 9.39163C14.0933 9.57912 14.1915 9.75439 14.3552 9.85018C14.5189 9.94392 14.7194 9.94392 14.8831 9.85018C15.0468 9.75439 15.145 9.57912 15.143 9.39163C15.143 7.95688 13.9644 6.78299 12.524 6.78299Z" fill="#D9BD88"/>
</svg>
