<?xml version="1.0" standalone="no"?>
<!DOCTYPE svg PUBLIC "-//W3C//DTD SVG 20010904//EN"
 "http://www.w3.org/TR/2001/REC-SVG-20010904/DTD/svg10.dtd">
<svg version="1.0" xmlns="http://www.w3.org/2000/svg"
 width="856.000000pt" height="856.000000pt" viewBox="0 0 856.000000 856.000000"
 preserveAspectRatio="xMidYMid meet">
<metadata>
Created by potrace 1.14, written by Peter Selinger 2001-2017
</metadata>
<g transform="translate(0.000000,856.000000) scale(0.100000,-0.100000)"
fill="#000000" stroke="none">
<path d="M2186 8551 c-3 -4 6 -19 19 -31 23 -21 25 -31 25 -104 l0 -80 39 -36
40 -35 -16 -80 c-20 -105 -23 -342 -4 -415 45 -180 170 -291 345 -307 35 -3
169 6 316 21 1198 121 2033 98 2538 -70 327 -108 552 -295 766 -638 239 -382
349 -866 305 -1346 -5 -63 -17 -158 -25 -210 -92 -591 -399 -1253 -768 -1656
l-77 -84 258 0 258 0 87 153 c325 572 505 1093 558 1620 18 175 8 558 -19 713
-45 263 -113 474 -227 704 -145 293 -348 553 -544 697 -232 170 -589 269
-1095 304 -185 13 -671 7 -880 -11 -198 -16 -945 -69 -1160 -81 -309 -17 -400
-3 -472 72 -75 79 -98 262 -67 517 6 49 5 52 -15 52 -18 0 -21 6 -21 38 0 32
-6 41 -40 65 l-40 28 0 83 c0 73 -3 85 -23 104 -24 23 -52 29 -61 13z"/>
<path d="M1914 8447 c-96 -101 -171 -208 -224 -319 -61 -128 -75 -192 -75
-343 1 -119 3 -137 32 -217 121 -344 484 -614 966 -720 100 -22 113 -23 657
-20 806 5 1108 -21 1435 -123 169 -53 256 -101 453 -253 139 -107 286 -355
350 -590 23 -87 26 -115 26 -272 0 -149 -3 -187 -22 -255 -28 -100 -89 -229
-132 -278 -61 -71 -225 -142 -438 -193 -97 -23 -106 -23 -160 -10 -101 27
-234 46 -379 56 -325 24 -746 -41 -978 -148 l-80 -38 -75 18 c-215 52 -315 63
-580 63 -222 0 -271 -3 -382 -23 -228 -41 -413 -102 -618 -203 -239 -118 -420
-250 -600 -435 -155 -160 -227 -259 -314 -431 -54 -106 -65 -147 -43 -156 10
-4 31 19 69 76 110 165 276 347 428 470 308 248 717 416 1119 458 161 17 437
7 575 -21 119 -23 238 -58 329 -97 l59 -24 101 40 c355 137 701 200 961 173
122 -13 230 -41 284 -74 30 -19 44 -20 125 -14 216 15 402 63 562 143 269 134
456 357 537 639 82 288 -79 829 -346 1161 -163 201 -383 357 -601 426 -372
117 -945 165 -1815 153 -372 -5 -472 -4 -550 8 -501 77 -851 403 -850 790 1
199 90 406 247 576 35 38 53 66 49 75 -3 8 -10 15 -15 15 -5 0 -44 -37 -87
-83z"/>
<path d="M7760 4361 c-25 -10 -117 -51 -205 -91 -204 -93 -366 -157 -528 -209
-131 -42 -312 -81 -372 -81 -34 0 -38 -4 -185 -225 -82 -123 -150 -229 -150
-234 0 -9 168 23 330 64 464 117 913 338 1159 570 113 106 145 170 105 209
-21 21 -97 20 -154 -3z"/>
<path d="M7835 3973 c-37 -5 -155 -43 -155 -50 0 -3 12 -3 28 1 15 3 5 -5 -23
-18 -27 -12 -55 -21 -61 -19 -5 2 -55 -17 -110 -43 -629 -292 -1382 -482
-2069 -520 -98 -5 -129 -11 -170 -31 -215 -106 -398 -339 -435 -555 l-12 -66
-165 -63 c-156 -61 -187 -79 -167 -99 5 -5 104 11 224 35 1026 208 1880 475
2482 776 328 164 592 346 698 480 34 43 40 58 40 99 0 26 -6 52 -12 57 -17 14
-57 20 -93 16z"/>
<path d="M3600 3541 c-21 -55 -59 -121 -98 -169 -44 -54 -146 -132 -173 -132
-12 0 -19 -7 -19 -19 0 -42 177 -40 259 2 97 49 116 172 53 327 l-10 25 -12
-34z"/>
<path d="M1226 3349 c-215 -146 -393 -342 -495 -547 -18 -35 -49 -112 -69
-170 l-37 -107 -3 -250 c-4 -265 -1 -296 46 -435 119 -358 409 -649 766 -770
164 -55 233 -65 451 -65 230 0 333 17 549 85 153 49 217 77 368 158 l118 63
-30 60 c-91 180 -94 497 -6 655 17 30 21 45 13 53 -16 16 -23 14 -57 -21 -102
-107 -167 -357 -186 -710 l-6 -128 -32 -4 c-86 -14 -267 -16 -396 -6 -398 31
-700 152 -920 369 -173 172 -281 381 -325 628 -19 114 -19 334 0 449 41 240
159 495 301 653 28 31 44 57 40 66 -8 23 -26 18 -90 -26z"/>
<path d="M5825 2609 c-343 -230 -810 -372 -1087 -330 -127 20 -119 22 -135
-29 -153 -479 -373 -781 -678 -931 -160 -78 -229 -93 -425 -92 -91 1 -178 3
-193 5 -28 3 -30 0 -68 -102 -124 -328 -290 -592 -505 -800 -149 -144 -295
-243 -436 -295 -27 -10 -48 -22 -48 -26 0 -22 130 -8 217 22 191 67 347 171
523 348 175 176 321 393 366 542 l17 56 98 -5 c192 -9 421 32 574 102 214 99
392 281 517 530 23 45 73 162 113 260 l73 180 68 18 c382 103 736 277 1032
507 85 66 103 89 76 98 -5 1 -49 -25 -99 -58z"/>
</g>
</svg>
