<svg version="1.1" xmlns="http://www.w3.org/2000/svg" xmlns:xlink="http://www.w3.org/1999/xlink" width="138" height="71" viewBox="0,0,256,131.71667"><g fill="#d9bd88" fill-rule="evenodd" stroke="none" stroke-width="1" stroke-linecap="butt" stroke-linejoin="miter" stroke-miterlimit="10" stroke-dasharray="" stroke-dashoffset="0" font-family="none" font-weight="none" font-size="none" text-anchor="none" style="mix-blend-mode: normal"><g transform="translate(0.09904,0.41605) scale(1.85507,1.85507)"><path d="M47.6793,6.58957v0.87c1.395,0.375 2.1,1.935 2.355,3.15003c0.06,0.285 0.24,0.54 0.555,0.54c0.48,0 0.48,-0.465 0.48,-0.54v-3.48003c0,-0.075 0,-0.54 -0.48,-0.54c-0.21,0 -0.315,0.12 -0.405,0.315c-0.09,0.195 -0.18,0.285 -0.405,0.285c-0.1816,0 -0.529,-0.1268 -0.9044,-0.26385c-0.431,-0.15732 -0.899,-0.32813 -1.1956,-0.33615zM50.6343,14.7796c-0.315,0 -0.405,0.225 -0.495,0.48c-0.33,1.11 -1.305,1.875 -2.46,2.13v0.87c1.56,0.06 3.375,-1.74 3.405,-2.97c0,-0.27 -0.165,-0.51 -0.45,-0.51zM47.0043,18.2596v-0.87c-0.72,-0.18 -0.96,-0.795 -0.96,-1.425v-7.11003c0,-0.63 0.24,-1.245 0.96,-1.395v-0.87c-2.91,0.105 -4.86,2.565 -4.86,6.03003c0,3.075 1.56,5.58 4.86,5.64zM57.013,16.3546v-7.86003c0,-0.01534 0,-0.03033 0,-0.04498c-0.0004,-0.51505 -0.0005,-0.60458 0.51,-0.76502c0.195,-0.06 0.33,-0.195 0.33,-0.405c0,-0.435 -0.495,-0.465 -0.555,-0.465h-4.245c-0.06,0 -0.555,0.03 -0.555,0.465c0,0.21 0.135,0.345 0.33,0.405c0.5105,0.16044 0.5104,0.24997 0.5101,0.76502c-0.0001,0.01465 -0.0001,0.02964 -0.0001,0.04498v7.86003c0,0.0153 0,0.0303 0.0001,0.0449c0.0003,0.5151 0.0004,0.6046 -0.5101,0.7651c-0.195,0.06 -0.33,0.195 -0.33,0.405c0,0.435 0.495,0.465 0.555,0.465h4.245c0.06,0 0.555,-0.03 0.555,-0.465c0,-0.21 -0.135,-0.345 -0.33,-0.405c-0.5105,-0.1605 -0.5104,-0.25 -0.51,-0.7651c0,-0.0146 0,-0.0296 0,-0.0449zM59.008,12.7696v3.585c0,0.0153 0,0.0303 0,0.045c0.0004,0.515 0.0005,0.6045 -0.51,0.765c-0.195,0.06 -0.33,0.195 -0.33,0.405c0,0.435 0.495,0.465 0.555,0.465h4.245c0.06,0 0.555,-0.03 0.555,-0.465c0,-0.21 -0.135,-0.345 -0.33,-0.405c-0.5105,-0.1605 -0.5104,-0.25 -0.51,-0.7651c0,-0.0146 0,-0.0296 0,-0.0449v-7.86003c0,-0.01535 0,-0.03033 0,-0.04498c-0.0004,-0.51505 -0.0005,-0.60458 0.51,-0.76502c0.195,-0.06 0.33,-0.195 0.33,-0.405c0,-0.435 -0.495,-0.465 -0.555,-0.465h-4.245c-0.06,0 -0.555,0.03 -0.555,0.465c0,0.21 0.135,0.345 0.33,0.405c0.5105,0.16044 0.5104,0.24996 0.51,0.76501c0,0.01465 0,0.02964 0,0.04499v3.40503h-1.32v0.87zM68.0632,10.6096l-0.39,-1.69503h-0.045l-1.8,6.58503c-0.285,1.065 -0.69,1.41 -1.005,1.575c-0.0796,0.0398 -0.1548,0.0691 -0.2231,0.0957c-0.215,0.0838 -0.3619,0.1411 -0.3619,0.4143c0,0.435 0.54,0.45 0.84,0.45h1.725c0.0099,0 0.0199,0 0.0301,0c0.3009,0.0005 0.7499,0.0012 0.7499,-0.405c0,-0.2982 -0.2074,-0.3889 -0.4455,-0.4931l-0.0045,-0.0019c-0.51,-0.225 -0.72,-0.48 -0.48,-1.395zM69.6682,15.1246l0.3,1.155c0.135,0.585 0.075,0.69 -0.315,0.915c-0.195,0.105 -0.285,0.18 -0.285,0.42c0,0.39 0.435,0.42 0.735,0.42h3.735c0.0096,0 0.0195,0 0.0296,0c0.2911,0.0005 0.7954,0.0014 0.7954,-0.39c0,-0.27 -0.165,-0.375 -0.375,-0.465c-0.3778,-0.1619 -0.4279,-0.4088 -0.4996,-0.7625c-0.0081,-0.0395 -0.0163,-0.0803 -0.0254,-0.1225l-2.25,-9.48003h-3.315l-0.195,0.81l1.515,6.63003h-1.83l-0.21,0.87zM76.5129,9.63457v6.03003c-0.1494,1.1673 -0.5779,1.3811 -0.8801,1.5319c-0.1831,0.0914 -0.3199,0.1596 -0.3199,0.4031c0,0.4413 0.5539,0.4367 0.7514,0.4351c0.0106,-0.0001 0.0202,-0.0001 0.0286,-0.0001h1.71c0.0084,0 0.018,0 0.0286,0.0001c0.1976,0.0016 0.7514,0.0062 0.7514,-0.4351c0,-0.2435 -0.1367,-0.3117 -0.3199,-0.4031c-0.3022,-0.1508 -0.7307,-0.3646 -0.8801,-1.5319v-4.53l-0.84,-1.50003zM83.4579,9.52957v2.13003l0.84,1.515h0.03v-3.64503c0,-1.36871 0.5008,-1.63197 0.8633,-1.82253c0.2056,-0.10807 0.3667,-0.19276 0.3667,-0.44247c0,-0.42 -0.495,-0.45 -0.645,-0.45h-2.04c-0.15,0 -0.645,0.03 -0.645,0.45c0,0.24971 0.1611,0.3344 0.3667,0.44247c0.3625,0.19056 0.8633,0.45382 0.8633,1.82253zM84.3279,14.4046l-4.365,-7.59003h-3.855c-0.0135,0.00064 -0.0272,0.00126 -0.0412,0.00188c-0.3115,0.01394 -0.7238,0.0324 -0.7238,0.46312c0,0.32157 0.1852,0.38676 0.4306,0.47316l0.0194,0.00684c0.4402,0.14672 0.5482,0.34089 0.7355,0.67742c0.0234,0.04192 0.0479,0.08605 0.0745,0.13258l5.49,9.46503h2.235zM90.3119,16.0096v-7.18503c0,-0.54 0.12,-1.155 0.72,-1.365v-0.87c-2.61,0.06 -4.62,2.61 -4.62,5.83503c0,3.21 2.01,5.76 4.62,5.835v-0.87c-0.6,-0.21 -0.72,-0.84 -0.72,-1.38zM91.7069,6.58957v0.87c1.215,0.06 2.355,0.975 2.82,2.89503c0.075,0.315 0.18,0.6 0.57,0.6c0.465,0 0.465,-0.465 0.465,-0.54v-3.34503c0,-0.00371 0,-0.00823 0.0001,-0.01346c0.0017,-0.10062 0.0076,-0.46654 -0.4201,-0.46654c-0.2439,0 -0.3523,0.14326 -0.4589,0.28421c-0.1032,0.13648 -0.2048,0.27079 -0.4261,0.27079c-0.045,0 -0.138,-0.03124 -0.2814,-0.07942c-0.3824,-0.12848 -1.1232,-0.3774 -2.2686,-0.47558zM91.7069,17.3896v0.87c1.425,-0.03 2.805,-0.645 3.855,-1.59v-2.97c0,-0.0074 -0.0005,-0.0159 -0.001,-0.0252c-0.0044,-0.0855 -0.0129,-0.2491 0.271,-0.4248c0.135,-0.09 0.27,-0.195 0.27,-0.45c0,-0.4647 -0.3966,-0.4535 -0.5072,-0.4504c-0.0072,0.0002 -0.0132,0.0004 -0.0178,0.0004h-3.585c-0.075,0 -0.6,0.015 -0.6,0.42c0,0.255 0.15,0.39 0.39,0.45c0.6,0.105 0.615,0.18 0.615,0.51v2.7c0,0.255 -0.03,0.765 -0.69,0.96zM64.0647,21.5896v0.9c0.7634,0.3313 0.7522,2.0457 0.7501,2.3674c-0.0001,0.0133 -0.0001,0.0242 -0.0001,0.0326c-0.0291,2.0902 -0.7636,2.6509 -1.6839,3.3535c-0.5063,0.3865 -1.0688,0.8159 -1.6011,1.5665l0.03,0.03c0.0311,-0.0135 0.0626,-0.0273 0.0943,-0.0411c0.4264,-0.186 0.9031,-0.3939 1.4057,-0.3939l0.15,-0.105l2.19,-1.035c1.545,-0.6 2.73,-1.635 2.775,-3.39c0.06,-2.28 -2.07,-3.33 -4.11,-3.285zM65.5197,33.2596c0.795,0 1.68,-0.465 2.145,-1.095c0.405,-0.525 0.825,-1.44 0.825,-2.115c0,-0.285 -0.06,-0.645 -0.42,-0.645c-0.2981,0 -0.3505,0.2164 -0.409,0.458c-0.074,0.3058 -0.1579,0.652 -0.761,0.652c-0.404,0 -0.808,-0.0659 -1.2045,-0.1306c-0.1041,-0.017 -0.2076,-0.0338 -0.3105,-0.0494c-0.1505,-0.0229 -0.3016,-0.048 -0.4535,-0.0731c-0.5447,-0.0902 -1.0985,-0.1819 -1.6615,-0.1819c-0.72,0 -1.44,0.18 -2.01,0.675c-0.48,0.435 -0.84,1.155 -0.84,1.8c0,0.27 0.12,0.495 0.405,0.495c0.1291,0 0.2499,-0.1001 0.3875,-0.2141c0.1821,-0.1508 0.3935,-0.3259 0.6925,-0.3259c0.4666,0 1.02,0.1666 1.605,0.3428c0.656,0.1976 1.3518,0.4072 2.01,0.4072zM63.3747,22.5196v-0.9c-1.335,0.165 -2.835,1.05 -2.835,2.565c0,0.96 0.645,1.725 1.635,1.725c0.855,0 1.62,-0.69 1.62,-1.53c0,-0.8095 -0.427,-1.108 -0.6976,-1.2972c-0.1256,-0.0878 -0.2174,-0.152 -0.2174,-0.2328c0,-0.21 0.315,-0.315 0.495,-0.33zM73.5129,21.5896v0.9c0.7634,0.3313 0.7523,2.0457 0.7502,2.3674c-0.0001,0.0133 -0.0002,0.0242 -0.0002,0.0326c-0.029,2.0902 -0.7635,2.6509 -1.6839,3.3535c-0.5063,0.3865 -1.0688,0.8159 -1.6011,1.5665l0.03,0.03c0.0312,-0.0135 0.0626,-0.0272 0.0943,-0.0411c0.4265,-0.186 0.9031,-0.3939 1.4057,-0.3939l0.15,-0.105l2.19,-1.035c1.545,-0.6 2.73,-1.635 2.775,-3.39c0.06,-2.28 -2.07,-3.33 -4.11,-3.285zM74.9679,33.2596c0.795,0 1.68,-0.465 2.145,-1.095c0.405,-0.525 0.825,-1.44 0.825,-2.115c0,-0.285 -0.06,-0.645 -0.42,-0.645c-0.298,0 -0.3504,0.2164 -0.409,0.458c-0.074,0.3058 -0.1578,0.652 -0.761,0.652c-0.404,0 -0.808,-0.0659 -1.2045,-0.1306c-0.104,-0.017 -0.2076,-0.0338 -0.3105,-0.0494c-0.1504,-0.0229 -0.3016,-0.048 -0.4534,-0.0731c-0.5447,-0.0902 -1.0986,-0.1819 -1.6616,-0.1819c-0.72,0 -1.44,0.18 -2.01,0.675c-0.48,0.435 -0.84,1.155 -0.84,1.8c0,0.27 0.12,0.495 0.405,0.495c0.1292,0 0.25,-0.1001 0.3876,-0.2141c0.182,-0.1508 0.3934,-0.3259 0.6924,-0.3259c0.4667,0 1.02,0.1666 1.605,0.3428c0.656,0.1976 1.3519,0.4072 2.01,0.4072zM72.8229,22.5196v-0.9c-1.335,0.165 -2.835,1.05 -2.835,2.565c0,0.96 0.645,1.725 1.635,1.725c0.855,0 1.62,-0.69 1.62,-1.53c0,-0.8095 -0.427,-1.108 -0.6976,-1.2972c-0.1255,-0.0878 -0.2174,-0.152 -0.2174,-0.2328c0,-0.21 0.315,-0.315 0.495,-0.33zM122.781,15.797c3.566,5.2116 -2.136,7.9903 -6.208,6.8973c-7.583,-2.035 -9.253,-1.205 -10.502,-0.5844c-0.167,0.0831 -0.327,0.1625 -0.492,0.2308c-2.925,2.2682 -2.709,5.077 -2.235,6.1979c0.367,0.8677 2.465,1.723 2.465,1.723c3.083,-0.207 6.17,1.3579 6.795,2.0857c6.746,-0.3844 10.727,4.7218 11.079,8.0458c-1.78,-5.3107 -7.248,-7.6419 -11.158,-6.7843c-2.965,-2.1281 -5.426,-2.3746 -6.328,-1.9829c-4.321,-1.0297 -4.922,-4.2313 -4.626,-5.7401c1.54,-4.5407 4.901,-5.5455 6.39,-5.4803c2.466,-0.1657 7.279,0.9134 9.378,1.4736c4.351,1.1616 8.07,-1.9622 5.442,-6.0821zM15.1123,15.9634c-3.5652,5.2117 2.1362,7.9904 6.2086,6.8974c7.5824,-2.0351 9.2529,-1.205 10.5016,-0.5845v0.0001v0h0.0001v0v0v0v0v0h0.0001v0c0.1673,0.0832 0.327,0.1625 0.4924,0.2308c2.925,2.2682 2.7085,5.077 2.2347,6.1978c-0.3668,0.8678 -2.4652,1.7231 -2.4652,1.7231c-3.0825,-0.207 -6.1701,1.3579 -6.795,2.0857c-6.7464,-0.3844 -10.7266,4.7218 -11.0787,8.0457c1.78,-5.3106 7.2478,-7.6418 11.1581,-6.7843c2.9646,-2.1281 5.4256,-2.3745 6.3276,-1.9828c4.3213,-1.0297 4.9223,-4.2314 4.6256,-5.7401c-1.5398,-4.5407 -4.901,-5.5455 -6.3891,-5.4804c-2.466,-0.1656 -7.2795,0.9134 -9.378,1.4737c-4.3514,1.1616 -8.0706,-1.9622 -5.4428,-6.0822zM39.6406,35.0597l-2.1476,0.4953c1.8915,-2.9037 4.278,-12.2385 -2.2301,-17.0545c-1.7438,-1.1771 -4.2701,-2.5092 -16.1371,1.6489l-0.0327,0.0076c-0.5254,0.1234 -2.5612,0.6016 -2.5993,-3.3487l0.0858,0.375l0.1868,-0.043c0.047,0.7787 0.2207,1.8244 0.7658,2.4883c0.0569,0.0307 0.108,0.06 0.1556,0.0873l0.0001,0.0001c0.0909,0.0521 0.1694,0.0971 0.2523,0.1312c0.5204,0.2139 1.2174,-0.0019 6.2881,-1.572v0h0.0001l1.1686,-0.3617c6.7017,-2.0728 9.0179,-0.994 9.7953,-0.5811c2.6855,1.4265 8.1064,6.7551 4.4483,17.7273zM40.684,34.6931c4.4126,-2.0391 6.267,-4.962 6.1479,-5.4175c-0.1191,-0.4555 -0.9072,0.2391 -0.9072,0.2391c-2.2977,1.9686 -3.7448,2.7394 -4.4706,2.9307zM47.4168,31.1993c0.3511,0.5025 -2.352,4.8896 -14.3205,10.219l1.5057,-1.0393c-0.2169,-0.9246 0.1944,-2.4859 1.5159,-3.4816c0.5525,-0.1307 5.666,-1.5354 9.9609,-5.1864c0,0 1.0453,-0.9304 1.338,-0.5117zM26.4743,39.492c0.0218,-0.0011 0.0433,-0.0024 0.0645,-0.0038c-0.0251,0.0072 -0.0469,0.0086 -0.0645,0.0038zM26.5388,39.4882c0.2895,-0.0824 1.0267,-0.9255 1.1341,-1.8173c0.3069,0.4913 0.8593,1.6863 -1.1341,1.8173zM16.8412,41.1352c-5.4225,5.6909 1.5612,14.434 9.0236,8.2679c-8.1665,3.2904 -11.37,-3.9387 -9.0236,-8.2679zM25.8648,49.4031l0.8532,-0.8351c-0.949,-0.9227 -1.2999,-2.6088 -0.9754,-3.4934c-0.8018,1.019 -0.0318,3.7769 0.1222,4.3285zM44.1411,63.9654c11.9618,-23.0437 38.1619,-22.3236 49.8559,0c-14.1043,-19.6831 -36.3765,-19.7431 -49.8559,0zM25.3605,55.3167c2.8685,-1.0383 4.0933,-4.8794 3.8927,-5.6207c4.2772,-0.567 4.6993,-3.5413 4.9737,-5.4752c0.0362,-0.255 0.0698,-0.4919 0.1094,-0.7029c2.7313,-1.3942 3.9752,-2.9574 4.5733,-3.7092c0.0664,-0.0833 0.1248,-0.1567 0.1764,-0.2188c-1.8458,2.2202 -4.3567,3.1761 -5.4222,3.0434c-0.2769,5.0529 -3.2129,6.1256 -4.9042,6.1369c-0.4189,4.3486 -2.6423,6.1518 -3.3991,6.5465zM13.1848,61.5933c-7.82061,-1.2269 -14.77762,-11.288 -2.1996,-19.1405c-8.9432,6.8904 -6.92375,14.8346 0.9776,16.932c6.6373,1.7619 17.449,-0.9334 29.1641,-8.5887c5.343,-3.1449 15.009,-8.774 25.2875,-11.9047c-8.3717,-2.2796 -14.8149,-1.8107 -18.0372,-0.695c6.2939,-2.5472 13.6764,-2.0186 20.8902,-0.1027c7.0088,-1.778 14.1415,-2.2026 20.2491,0.2692c-3.1478,-1.0899 -9.3689,-1.5626 -17.4589,0.541c10.0617,3.1623 19.4665,8.6399 24.7092,11.7257c11.7152,7.6553 22.5272,10.3506 29.1642,8.5887c7.901,-2.0974 9.921,-10.0416 0.977,-16.932c12.578,7.8525 5.621,17.9136 -2.199,19.1406c-10.304,2.1528 -24.656,-5.9686 -35.4187,-12.0583c-3.9586,-2.2399 -7.4314,-4.205 -10.0383,-5.2828c-3.5394,-1.8967 -6.9088,-3.3158 -10.0492,-4.3537c-3.2852,1.051 -6.8287,2.52 -10.5611,4.5202c-2.6069,1.0778 -6.0797,3.0428 -10.0382,5.2827l-0.0001,0.0001c-10.7623,6.0897 -25.1152,14.2111 -35.4186,12.0582zM112.029,49.2366c7.462,6.1661 14.446,-2.5769 9.023,-8.2679c2.347,4.3293 -0.857,11.5584 -9.023,8.2679zM112.029,49.2366l-0.853,-0.835c0.949,-0.9228 1.3,-2.6088 0.975,-3.4934c0.802,1.0189 0.032,3.7769 -0.122,4.3284zM111.419,39.3256c-0.021,-0.0012 -0.043,-0.0025 -0.064,-0.0039c0.025,0.0072 0.047,0.0086 0.064,0.0039zM111.355,39.3217c-0.29,-0.0824 -1.027,-0.9255 -1.134,-1.8173c-0.307,0.4913 -0.86,1.6864 1.134,1.8173zM112.533,55.1502c-2.868,-1.0382 -4.093,-4.8794 -3.893,-5.6207c-4.277,-0.567 -4.699,-3.5412 -4.973,-5.4751v-0.0003v-0.0003v-0.0004v-0.0007l-0.001,-0.0009v-0.0005c-0.036,-0.2539 -0.069,-0.4898 -0.109,-0.6999c-2.731,-1.3941 -3.9748,-2.9574 -4.573,-3.7091c-0.0663,-0.0834 -0.1247,-0.1568 -0.1763,-0.2189c1.8453,2.2202 4.3563,3.1761 5.4223,3.0434c0.277,5.053 3.213,6.1256 4.904,6.1369c0.419,4.3486 2.642,6.1518 3.399,6.5465zM90.4769,31.0329c-0.3512,0.5025 2.352,4.8895 14.3201,10.219l-1.505,-1.0394c0.217,-0.9246 -0.195,-2.4858 -1.516,-3.4816c-0.553,-0.1307 -5.6663,-1.5354 -9.9612,-5.1864c0,0 -1.0453,-0.9304 -1.3379,-0.5116zM97.2097,34.5267c-4.4127,-2.0392 -6.267,-4.9621 -6.1479,-5.4176c0.119,-0.4555 0.9072,0.2391 0.9072,0.2391c2.2977,1.9686 3.7448,2.7395 4.4706,2.9307zM98.2531,34.8933l2.1479,0.4953c-1.8919,-2.9038 -4.2783,-12.2386 2.23,-17.0546c1.744,-1.177 4.27,-2.5092 16.137,1.6489l0.033,0.0076c0.525,0.1234 2.561,0.6016 2.599,-3.3486l-0.086,0.375l-0.187,-0.0431c-0.047,0.7788 -0.22,1.8244 -0.766,2.4883c-0.056,0.0306 -0.107,0.0598 -0.155,0.0871v0.0001v0.0002c-0.091,0.0522 -0.17,0.0972 -0.253,0.1312c-0.52,0.2139 -1.217,-0.0019 -6.288,-1.572v0l-1.168,-0.3617c-6.702,-2.0728 -9.018,-0.994 -9.796,-0.5811c-2.685,1.4265 -8.1061,6.7551 -4.4479,17.7274z"></path></g></g></svg>